<svg width="180" height="180" viewBox="0 0 180 180" fill="none" xmlns="http://www.w3.org/2000/svg">
<path d="M141.838 180H38.1618C17.2059 180 0 162.794 0 141.838V38.1618C0 17.2059 17.2059 0 38.1618 0H141.838C162.794 0 180 17.2059 180 38.1618V141.838C180 162.794 162.794 180 141.838 180Z" fill="url(#paint0_linear_203_571)"/>
<path d="M41.8381 137.132L42.1323 136.912" stroke="#231F20" stroke-width="3" stroke-miterlimit="10"/>
<path d="M59.7793 118.088C59.8284 118.137 59.8774 118.186 59.9264 118.235C61.2989 119.167 62.745 120 64.2646 120.735C66.2254 121.765 68.2597 122.647 70.3676 123.382C70.6127 123.48 70.8578 123.578 71.1029 123.676C72.9166 124.265 74.7548 124.73 76.6176 125.073C77.745 125.319 78.897 125.49 80.0734 125.588C81.7891 125.784 83.5293 125.882 85.294 125.882C92.4264 125.882 99.1176 124.265 105.147 121.397C110.956 118.603 116.029 114.632 120.147 109.779C123.015 106.397 125.441 102.647 127.206 98.5293C126.985 86.544 117.5 76.9117 105.588 76.397C113.088 76.8381 119.044 83.0146 119.044 90.5882C119.559 96.9117 117.353 103.015 113.382 107.794C112.549 108.872 111.618 109.853 110.588 110.735C106.029 114.779 100.735 117.573 94.9999 119.191C92.5489 119.926 90.0489 120.466 87.4999 120.809C85.0489 121.103 82.5734 121.25 80.0734 121.25C78.1617 121.299 76.2499 121.225 74.3382 121.029C71.3235 120.809 68.3823 120.294 65.5146 119.706C65.2695 119.657 64.9999 119.583 64.7058 119.485C64.0195 119.338 63.3333 119.167 62.647 118.971C61.7646 118.725 60.8823 118.456 59.9999 118.162H59.9264C59.8774 118.162 59.8284 118.137 59.7793 118.088Z" fill="url(#paint1_linear_203_571)"/>
<path d="M38.0881 127.868C38.5783 128.113 39.0685 128.358 39.5587 128.603C42.2058 129.706 45.0734 130.515 48.0146 130.809C49.6323 131.005 51.2989 131.078 53.0146 131.029C58.0881 130.735 62.8675 129.191 66.9852 126.691C65.0244 126.299 63.1862 125.662 61.4705 124.779C62.4019 124.828 63.3332 124.828 64.2646 124.779C64.2646 124.779 64.2891 124.779 64.3381 124.779C66.3969 124.706 68.4558 124.191 70.3675 123.382C68.7009 122.843 67.1077 122.181 65.5881 121.397C65.147 121.201 64.7058 120.98 64.2646 120.735C62.745 120 61.2989 119.167 59.9264 118.235L57.9411 120.294C53.7499 124.779 48.0146 127.5 41.8381 127.868C41.7891 127.868 41.7646 127.868 41.7646 127.868C40.5391 127.917 39.3136 127.917 38.0881 127.868Z" fill="url(#paint2_linear_203_571)"/>
<path d="M38.0881 127.868C38.5783 128.113 39.0685 128.358 39.5587 128.603C41.3724 128.701 43.1862 128.701 44.9999 128.603C47.2548 128.505 49.5097 128.186 51.7646 127.647C56.8381 126.397 61.4705 124.265 65.5881 121.397C65.147 121.201 64.7058 120.98 64.2646 120.735C62.745 120 61.2989 119.167 59.9264 118.235L57.9411 120.294C53.7499 124.779 48.0146 127.5 41.8381 127.868C41.7891 127.868 41.7646 127.868 41.7646 127.868C40.5391 127.917 39.3136 127.917 38.0881 127.868Z" fill="url(#paint3_linear_203_571)"/>
<path d="M61.4705 124.779C63.1861 125.662 65.0244 126.299 66.9852 126.691C67.6714 126.838 68.3577 126.961 69.044 127.059C70.2695 127.206 71.544 127.255 72.8675 127.206C75.3675 127.059 77.794 126.471 80.0734 125.588C78.8969 125.49 77.745 125.319 76.6175 125.073C74.7548 124.73 72.9165 124.265 71.1028 123.676C70.8577 123.578 70.6126 123.48 70.3675 123.382C68.4558 124.191 66.3969 124.706 64.3381 124.779C64.2891 124.779 64.2646 124.779 64.2646 124.779C63.3332 124.828 62.4018 124.828 61.4705 124.779Z" fill="url(#paint4_linear_203_571)"/>
<path d="M92.7205 76.8382C92.7205 77.8186 92.745 78.799 92.794 79.7794C92.892 80.7108 93.0146 81.6176 93.1616 82.5C95.6616 78.897 99.7793 76.5441 104.485 76.397C104.632 76.397 104.755 76.397 104.853 76.397C105 76.397 105.147 76.397 105.294 76.397C105.392 76.397 105.49 76.397 105.588 76.397C117.5 76.9117 126.985 86.5441 127.206 98.5294C129.632 92.9411 131.029 86.6911 131.029 80.2206C131.029 79.6813 131.029 79.1176 131.029 78.5294C129.461 78.9706 127.843 79.1911 126.176 79.1911C119.632 79.1911 113.97 75.7353 110.882 70.5882C109.265 67.8676 108.309 64.7059 108.309 61.3235C108.309 56.1764 110.515 51.5441 113.97 48.3088C114.706 47.6715 115.466 47.1078 116.25 46.6176H116.323C118.088 45.4411 120.073 44.5588 122.132 43.9706C122.132 43.9706 122.157 43.9706 122.206 43.9706C122.99 43.7255 123.823 43.5294 124.706 43.3823C121.25 43.5294 117.941 44.1911 114.853 45.2941C101.912 49.9264 92.7205 62.2794 92.7205 76.8382Z" fill="url(#paint5_linear_203_571)"/>
<path d="M59.7058 118.088C61.3725 118.627 63.0391 119.093 64.7058 119.485C74.3382 121.765 85.2205 122.059 94.9999 119.191C100.735 117.573 106.029 114.779 110.588 110.735C111.618 109.853 112.549 108.872 113.382 107.794C117.353 103.015 119.559 96.9117 119.044 90.5882C119.044 83.0882 113.235 76.9852 105.956 76.397C105.809 76.397 105.686 76.397 105.588 76.397C105.49 76.397 105.392 76.397 105.294 76.397C105.147 76.397 105 76.397 104.853 76.397C104.755 76.397 104.632 76.397 104.485 76.397C99.7793 76.544 95.6617 78.897 93.1617 82.4999L82.8676 93.5293L60.0735 117.72L59.7058 118.088Z" fill="url(#paint6_linear_203_571)"/>
<path d="M60.0735 117.72C68.4558 118.676 77.2058 118.235 85.2941 116.103C91.5441 114.485 97.4264 111.691 102.426 107.647C103.554 106.765 104.608 105.784 105.588 104.706C109.853 99.9264 112.279 93.8234 111.765 87.4999C111.765 83.0146 109.485 79.044 105.956 76.397C105.809 76.397 105.686 76.397 105.588 76.397C105.49 76.397 105.392 76.397 105.294 76.397C105.147 76.397 105 76.397 104.853 76.397C104.755 76.397 104.632 76.397 104.485 76.397C104.387 76.397 104.314 76.397 104.265 76.397C99.6323 76.6176 95.5882 78.9705 93.1617 82.4999L82.8676 93.5293L60.147 117.647L60.0735 117.72Z" fill="url(#paint7_linear_203_571)"/>
<path d="M60.147 117.647C69.2646 116.25 78.6029 113.235 86.544 108.529C92.0587 105.22 96.8381 101.029 100.441 96.0293C101.274 94.8529 101.985 93.6519 102.573 92.4264C105.147 87.2793 105.882 81.6176 104.265 76.397C101.691 76.544 99.2646 77.2793 97.2793 78.6029C95.6617 79.6323 94.2646 80.9558 93.1617 82.4999L82.8676 93.5293L61.7646 115.882L60.147 117.647Z" fill="url(#paint8_linear_203_571)"/>
<path d="M61.7646 115.882C68.0146 113.823 74.1176 110.956 79.4852 107.353C84.9999 103.676 89.7058 99.191 93.1617 93.8234C93.9951 92.6469 94.6813 91.3969 95.2205 90.0734C96.9117 86.3234 97.647 82.3528 97.2794 78.6028C95.6617 79.6322 94.2647 80.9557 93.1617 82.4998L82.8676 93.5293L61.7646 115.882Z" fill="url(#paint9_linear_203_571)"/>
<path d="M113.971 48.3088C114.706 47.6715 115.466 47.1078 116.25 46.6176H116.324C118.088 45.4411 120.074 44.5588 122.132 43.9706C122.132 43.9706 122.157 43.9706 122.206 43.9706C122.99 43.7255 123.824 43.5294 124.706 43.3823C125.196 43.3823 125.686 43.3823 126.176 43.3823C128.137 43.3823 130.074 43.5294 131.985 43.8235C128.015 48.3088 125.588 54.5588 125.588 61.3235C125.588 61.4215 125.588 61.5196 125.588 61.6176C125.662 68.0882 127.941 73.9706 131.544 78.3823C131.348 78.4313 131.176 78.4804 131.029 78.5294C129.461 78.9706 127.843 79.1911 126.176 79.1911C119.632 79.1911 113.971 75.7353 110.882 70.5882C109.265 67.8676 108.309 64.7059 108.309 61.3235C108.309 56.1764 110.515 51.5441 113.971 48.3088Z" fill="url(#paint10_linear_203_571)"/>
<path d="M125.588 61.3235C125.588 61.4215 125.588 61.5196 125.588 61.6176C126.078 61.5196 126.544 61.446 126.985 61.397C127.573 61.348 128.186 61.3235 128.823 61.3235C134.338 61.3235 139.338 63.3823 143.235 66.6911C145.441 68.6029 147.206 70.8823 148.529 73.5294C148.578 73.5784 148.603 73.6274 148.603 73.6764C149.706 71.1029 150.294 68.2352 150.294 65.2205C150.294 63.1617 150 61.1029 149.485 59.1911C147.279 51.3235 140.588 45.5147 132.5 43.9705C132.304 43.9215 132.132 43.8725 131.985 43.8235C130.294 45.7353 128.897 47.9411 127.868 50.4411C126.397 53.75 125.588 57.4264 125.588 61.3235Z" fill="url(#paint11_linear_203_571)"/>
<path d="M125.588 61.3235C125.588 61.4216 125.588 61.5196 125.588 61.6176C126.078 61.5196 126.544 61.4461 126.985 61.397C127.573 61.348 128.186 61.3235 128.823 61.3235C134.338 61.3235 139.338 63.3823 143.235 66.6912C145.441 68.6029 147.206 70.8823 148.529 73.5294C148.578 72.9902 148.603 72.451 148.603 71.9117C148.603 69.7794 148.235 67.7206 147.573 65.8088C144.926 58.0147 137.279 52.2794 127.868 50.4412C126.397 53.75 125.588 57.4265 125.588 61.3235Z" fill="url(#paint12_linear_203_571)"/>
<path d="M125.588 61.6176C125.637 63.4313 125.833 65.196 126.176 66.9117C126.985 71.25 128.897 75.2205 131.544 78.3823C137.132 76.6176 141.47 72.2794 143.235 66.6911C139.338 63.3823 134.338 61.3235 128.823 61.3235C128.186 61.3235 127.573 61.348 126.985 61.397C126.544 61.446 126.078 61.5196 125.588 61.6176Z" fill="url(#paint13_linear_203_571)"/>
<path d="M125.588 61.6176C125.637 63.4313 125.833 65.196 126.176 66.9117C131.618 69.1176 137.794 69.0441 143.235 66.6911C139.338 63.3823 134.338 61.3235 128.823 61.3235C128.186 61.3235 127.573 61.348 126.985 61.397C126.544 61.446 126.078 61.5196 125.588 61.6176Z" fill="url(#paint14_linear_203_571)"/>
<path d="M116.029 55.6618C115.735 56.7647 116.324 57.8676 117.426 58.2353C118.603 58.5294 119.706 57.8676 120.074 56.7647C120.172 56.3725 120.172 55.9804 120.074 55.5882C119.853 56.0294 119.412 56.25 118.971 56.1029C118.529 56.0294 118.235 55.5147 118.382 55.0735C118.456 54.7059 118.75 54.4118 119.118 54.4118C118.971 54.3137 118.799 54.2402 118.603 54.1912C117.5 53.897 116.324 54.4853 116.029 55.6618Z" fill="#1A2A6C"/>
<path fill-rule="evenodd" clip-rule="evenodd" d="M80.0001 126.103C78.8726 126.005 77.7206 125.833 76.5442 125.588C74.6324 125.221 72.7942 124.779 70.9559 124.118C70.7108 124.069 70.4412 123.995 70.1471 123.897C68.0148 123.162 65.9559 122.279 63.9706 121.25C62.5001 120.441 61.0295 119.559 59.6324 118.603L59.4853 118.529C59.2648 118.382 59.1177 118.088 59.2648 117.868C59.3383 117.574 59.6324 117.5 59.9265 117.573C59.9755 117.623 60.0246 117.647 60.0736 117.647C60.0736 117.647 60.0981 117.647 60.1471 117.647C61.0295 117.941 61.9118 118.211 62.7942 118.456C63.4804 118.652 64.1667 118.824 64.853 118.971C65.0981 119.069 65.3677 119.142 65.6618 119.191C68.5295 119.853 71.4707 120.294 74.4118 120.515C76.3236 120.662 78.2353 120.809 80.0736 120.735C82.5736 120.735 85.0736 120.588 87.5001 120.294C90.0001 119.926 92.5001 119.412 94.853 118.676C100.809 116.985 105.956 114.191 110.221 110.368C111.201 109.485 112.132 108.505 113.015 107.426C117.059 102.573 118.971 96.6176 118.529 90.6617C118.529 90.6127 118.529 90.5882 118.529 90.5882C118.529 83.3088 112.868 77.2794 105.588 76.9117C105.294 76.9117 105.074 76.6911 105.074 76.397C105.074 76.1029 105.368 75.8823 105.662 75.8823C117.794 76.397 127.5 86.3235 127.721 98.5294C127.721 98.5784 127.721 98.6519 127.721 98.75C125.882 102.868 123.456 106.691 120.588 110.074C116.324 115.074 111.25 119.044 105.368 121.838C99.1177 124.926 92.353 126.397 85.2942 126.397C83.5295 126.397 81.7648 126.324 80.0001 126.103ZM104.927 120.956C110.662 118.162 115.662 114.338 119.779 109.412C122.574 106.103 124.927 102.426 126.691 98.4559C126.471 89.7059 121.25 82.2794 113.75 78.897C117.279 81.5441 119.559 85.8088 119.559 90.5882C120.074 96.7647 118.015 103.015 113.824 108.088C112.941 109.216 111.961 110.245 110.882 111.176C106.544 115.074 101.25 117.941 95.1471 119.706C92.7206 120.441 90.2206 120.956 87.5736 121.324C85.1471 121.618 82.6471 121.765 80.0736 121.838C78.1618 121.838 76.2501 121.765 74.3383 121.544C71.3236 121.324 68.3824 120.882 65.4412 120.221C65.1471 120.123 64.853 120.049 64.5589 120C64.1667 119.902 63.7746 119.804 63.3824 119.706C63.7256 119.902 64.0932 120.098 64.4854 120.294C66.3971 121.323 68.4559 122.206 70.5148 122.868C70.7599 122.966 71.0295 123.064 71.3236 123.162C73.0148 123.75 74.853 124.191 76.7648 124.559C77.8922 124.804 79.0197 124.975 80.1471 125.073C81.8383 125.294 83.603 125.368 85.2942 125.368C92.2059 125.368 98.7501 123.897 104.853 120.956C104.902 120.956 104.927 120.956 104.927 120.956Z" fill="#1A2A6C"/>
<path fill-rule="evenodd" clip-rule="evenodd" d="M47.9412 131.324C44.4118 130.956 41.0294 129.926 37.8677 128.309C37.6471 128.235 37.5 128.015 37.5736 127.721C37.6471 127.5 37.8677 127.353 38.0883 127.353C39.2648 127.426 40.4412 127.426 41.6912 127.353C41.7402 127.353 41.7892 127.353 41.8383 127.353C47.7942 126.985 53.3824 124.412 57.5736 119.926L59.5589 117.868C59.7059 117.647 60 117.647 60.2206 117.794C61.5932 118.676 63.0148 119.51 64.4853 120.294C66.3971 121.324 68.4559 122.206 70.5147 122.868C70.7353 122.941 70.8824 123.162 70.8824 123.382C70.8824 123.603 70.7353 123.75 70.5147 123.897C68.5294 124.706 66.4706 125.221 64.3383 125.294C64.2893 125.294 64.2647 125.294 64.2647 125.294C64.1667 125.294 64.0687 125.294 63.9706 125.294C65 125.686 66.0295 125.98 67.0589 126.176C67.2795 126.25 67.4265 126.397 67.5 126.618C67.5 126.838 67.4265 127.059 67.2059 127.132C62.9412 129.779 58.0883 131.25 53.0147 131.544C52.5246 131.544 52.0098 131.544 51.4706 131.544C50.2942 131.544 49.1177 131.471 47.9412 131.324ZM61.25 125.294C61.0295 125.147 60.8824 124.926 60.9559 124.632C61.0294 124.412 61.25 124.265 61.4706 124.265C62.402 124.314 63.3089 124.314 64.1912 124.265L64.2647 124.779V124.265C65.8334 124.167 67.353 123.873 68.8236 123.382C67.1569 122.745 65.5393 122.034 63.9706 121.25C62.5981 120.515 61.2746 119.73 60 118.897L58.3089 120.662C53.9706 125.294 48.0883 128.015 41.8383 128.382C41.8383 128.382 41.8138 128.382 41.7648 128.382C41.3726 128.382 40.9804 128.407 40.5883 128.456C42.9902 129.387 45.4902 130 48.0883 130.294C49.7059 130.515 51.3236 130.588 53.0147 130.515C57.4265 130.221 61.6912 129.044 65.5883 126.912C64.0687 126.52 62.6226 125.98 61.25 125.294Z" fill="#1A2A6C"/>
<path fill-rule="evenodd" clip-rule="evenodd" d="M68.9706 127.573C68.2353 127.475 67.5245 127.353 66.8382 127.206C64.9265 126.838 63.0147 126.176 61.25 125.294C61.0294 125.147 60.8824 124.926 60.9559 124.632C61.0294 124.412 61.25 124.264 61.4706 124.264C62.402 124.314 63.3089 124.314 64.1912 124.264L64.2647 124.779V124.264C66.3235 124.191 68.2353 123.676 70.1471 122.941C70.2451 122.892 70.3677 122.867 70.5147 122.867C70.7598 122.965 71.0294 123.064 71.3235 123.162C73.0147 123.75 74.853 124.191 76.7647 124.559C77.8922 124.804 79.0196 124.975 80.1471 125.073C80.3677 125.147 80.5883 125.294 80.5883 125.514C80.5883 125.735 80.5147 126.029 80.2941 126.103C77.9412 127.059 75.4412 127.573 72.8677 127.72C72.4755 127.72 72.0588 127.72 71.6177 127.72C70.7353 127.72 69.853 127.671 68.9706 127.573ZM76.5441 125.588C74.6324 125.22 72.7941 124.779 70.9559 124.117C70.7598 124.068 70.5637 124.019 70.3677 123.97C68.4559 124.706 66.3971 125.22 64.3383 125.294C64.2892 125.294 64.2647 125.294 64.2647 125.294C64.1667 125.294 64.0686 125.294 63.9706 125.294C65 125.686 66.0294 125.98 67.0588 126.176C67.6961 126.323 68.3824 126.446 69.1177 126.544C70.3432 126.691 71.5686 126.715 72.7941 126.617C74.5098 126.568 76.1765 126.299 77.7941 125.809C77.402 125.76 76.9853 125.686 76.5441 125.588Z" fill="#1A2A6C"/>
<path fill-rule="evenodd" clip-rule="evenodd" d="M127.132 99.0441C126.838 98.9706 126.691 98.75 126.691 98.5294C126.691 96.7647 126.397 94.9265 125.956 93.2353C125.858 92.8922 125.76 92.5736 125.662 92.2794C125.588 91.9118 125.441 91.6177 125.294 91.25C125.147 90.7598 124.951 90.2941 124.706 89.853C124.216 88.7255 123.652 87.6716 123.015 86.6912C122.23 85.5638 121.373 84.5098 120.441 83.5294C120.294 83.4314 120.172 83.3089 120.074 83.1618C116.176 79.3383 111.029 77.1324 105.662 76.9118C105.613 76.9118 105.588 76.9118 105.588 76.9118H105.294C105.147 76.9118 105 76.9118 104.853 76.9118C104.755 76.9118 104.632 76.9118 104.485 76.9118C100.147 77.0589 96.1029 79.2647 93.6029 82.7941C93.4559 83.0147 93.2353 83.0883 93.0882 83.0147C92.8676 83.0147 92.7205 82.7941 92.647 82.6471C92.5 81.6667 92.3774 80.7353 92.2794 79.853C92.1813 78.8236 92.1323 77.8187 92.1323 76.8383C92.1323 62.5 101.176 49.6324 114.632 44.853C117.868 43.6765 121.25 43.0147 124.632 42.8677C124.926 42.8677 125.147 43.0883 125.221 43.3089C125.221 43.603 125.073 43.8236 124.779 43.8971C123.897 44.0441 123.064 44.2157 122.279 44.4118C122.279 44.4608 122.279 44.4853 122.279 44.4853C120.294 45 118.309 45.8824 116.544 47.0589C115.735 47.5736 115 48.0883 114.338 48.6765C110.809 51.9118 108.823 56.5441 108.823 61.3236C108.823 64.4853 109.706 67.5736 111.323 70.2941C114.485 75.5883 120 78.6765 126.176 78.6765C127.794 78.6765 129.363 78.4804 130.882 78.0883C131.029 78.0392 131.176 78.0638 131.323 78.1618C131.397 78.2353 131.471 78.3824 131.544 78.5294C131.544 79.0687 131.544 79.6324 131.544 80.2206C131.544 86.6177 130.221 92.8677 127.647 98.75C127.573 98.8971 127.426 99.0441 127.206 99.0441C127.157 99.0441 127.132 99.0441 127.132 99.0441ZM126.176 79.7059C119.632 79.7059 113.75 76.3971 110.441 70.8089C108.676 67.9412 107.794 64.7059 107.794 61.3236C107.794 56.25 109.926 51.3971 113.603 47.8677C114.338 47.2794 115.147 46.7157 116.029 46.1765C116.029 46.1765 116.029 46.152 116.029 46.103C116.814 45.6128 117.647 45.1716 118.529 44.7794C117.353 45.0736 116.176 45.4167 115 45.8089C101.985 50.5147 93.2353 62.9412 93.2353 76.8383C93.2353 77.8187 93.2598 78.7991 93.3088 79.7794C93.3578 80.2206 93.4313 80.7108 93.5294 81.25C96.1764 77.9412 100.221 75.9559 104.485 75.8824C104.73 75.8824 105 75.8824 105.294 75.8824H105.588C105.637 75.8824 105.662 75.8824 105.662 75.8824C111.323 76.103 116.691 78.4559 120.809 82.4265C120.907 82.5245 121.029 82.6471 121.176 82.7941C122.157 83.8236 123.039 84.9265 123.823 86.103C124.559 87.1324 125.172 88.2353 125.662 89.4118C125.907 89.902 126.127 90.3922 126.324 90.8824C126.471 91.3236 126.544 91.6177 126.691 91.9118C126.789 92.2549 126.887 92.6226 126.985 93.0147C127.23 94.0441 127.426 95.1226 127.574 96.25C129.485 91.103 130.515 85.7353 130.515 80.2206C130.515 79.8775 130.515 79.5589 130.515 79.2647C129.093 79.5589 127.647 79.7059 126.176 79.7059Z" fill="#1A2A6C"/>
<path fill-rule="evenodd" clip-rule="evenodd" d="M64.559 120C62.8678 119.632 61.1766 119.118 59.5589 118.603C59.4119 118.529 59.2648 118.382 59.2648 118.235C59.1913 118.015 59.2648 117.868 59.3384 117.721L92.7942 82.2059C95.4413 78.3823 99.7795 76.0294 104.485 75.8823C104.731 75.8823 105 75.8823 105.294 75.8823H105.662C113.456 76.3235 119.559 82.7206 119.559 90.5882C120.074 96.7647 118.015 103.015 113.824 108.088C112.941 109.216 111.961 110.245 110.882 111.176C106.544 115.074 101.25 117.941 95.1472 119.706C90.3678 121.103 85.1472 121.838 79.7795 121.838C74.7795 121.838 69.6325 121.176 64.559 120ZM104.485 76.9117C100.147 77.0588 96.1031 79.2647 93.6031 82.7941C93.6031 82.8431 93.5786 82.8676 93.5295 82.8676L60.6619 117.868C62.0344 118.26 63.407 118.627 64.7795 118.971C75.1472 121.471 85.8089 121.323 94.8531 118.676C100.809 116.985 105.956 114.191 110.221 110.368C111.201 109.485 112.132 108.505 113.015 107.426C117.059 102.573 118.971 96.6176 118.53 90.6617C118.53 90.6127 118.53 90.5882 118.53 90.5882C118.53 83.3088 112.868 77.2794 105.588 76.9117H105.294C105.147 76.9117 105 76.9117 104.853 76.9117C104.755 76.9117 104.632 76.9117 104.485 76.9117Z" fill="#1A2A6C"/>
<path fill-rule="evenodd" clip-rule="evenodd" d="M110.441 70.8089C108.677 67.9412 107.794 64.706 107.794 61.3236C107.794 56.2501 109.927 51.3971 113.603 47.8677C114.338 47.2795 115.147 46.7158 116.029 46.1765C116.029 46.1765 116.029 46.152 116.029 46.103C117.868 44.9265 119.927 44.0442 121.985 43.456C122.034 43.456 122.059 43.456 122.059 43.456C122.843 43.2109 123.701 43.0148 124.632 42.8677C125.123 42.8187 125.637 42.7942 126.177 42.7942C128.162 42.7942 130.147 43.0148 132.059 43.3089C132.206 43.3824 132.353 43.5295 132.427 43.6765C132.5 43.8236 132.5 44.0442 132.353 44.1912C128.309 48.7501 126.103 54.853 126.103 61.3236C126.103 61.4216 126.103 61.5197 126.103 61.6177C126.177 67.7207 128.235 73.603 131.985 78.0883C132.059 78.1618 132.132 78.3824 132.059 78.5295C131.985 78.6765 131.912 78.8236 131.691 78.8971C131.495 78.9461 131.299 78.9952 131.103 79.0442C129.559 79.4854 127.868 79.706 126.177 79.706C119.632 79.706 113.75 76.3971 110.441 70.8089ZM125.074 61.6177C125.074 61.5197 125.074 61.4216 125.074 61.3236C125.074 54.9265 127.132 48.8971 130.956 44.1912C129.387 43.9952 127.794 43.8971 126.177 43.8971C125.686 43.8971 125.221 43.8971 124.779 43.8971C123.897 44.0442 123.064 44.2158 122.279 44.4118C122.279 44.4609 122.279 44.4854 122.279 44.4854C120.294 45.0001 118.309 45.8824 116.544 47.0589C115.735 47.5736 115 48.0883 114.338 48.6765C110.809 51.9118 108.824 56.5442 108.824 61.3236C108.824 64.4854 109.706 67.5736 111.324 70.2942C114.485 75.5883 120 78.6765 126.177 78.6765C127.696 78.6765 129.191 78.4805 130.662 78.0883C127.132 73.5295 125.147 67.7207 125.074 61.6177Z" fill="#1A2A6C"/>
<path fill-rule="evenodd" clip-rule="evenodd" d="M148.162 73.8971C146.838 71.3235 145.073 68.9706 142.868 67.1324C138.971 63.75 133.971 61.9118 128.823 61.9118C128.235 61.9118 127.647 61.9363 127.059 61.9853C126.569 61.9853 126.103 62.0343 125.662 62.1324C125.515 62.1324 125.392 62.0833 125.294 61.9853C125.147 61.8873 125.073 61.7647 125.073 61.6177C125.073 61.5196 125.073 61.4216 125.073 61.3235C125.073 54.6324 127.353 48.3088 131.544 43.5294C131.691 43.3824 131.838 43.3088 132.059 43.3088C132.255 43.3579 132.426 43.4069 132.573 43.4559C141.103 45.0735 147.721 51.0294 150 59.0441C150.515 61.0294 150.809 63.0882 150.809 65.2206C150.809 68.2353 150.221 71.1765 149.118 73.8971C149.044 74.1177 148.823 74.1912 148.676 74.1912C148.676 74.1912 148.652 74.1912 148.603 74.1912C148.456 74.1912 148.235 74.1177 148.162 73.8971ZM126.103 61.0294C126.397 60.9804 126.691 60.9314 126.985 60.8824C127.573 60.8333 128.186 60.8088 128.823 60.8088C134.191 60.8088 139.485 62.7941 143.529 66.3235C145.588 68.0882 147.279 70.1471 148.529 72.4265C149.412 70.1471 149.779 67.7206 149.779 65.2206C149.779 63.2353 149.485 61.25 148.971 59.3382C146.838 51.6912 140.515 46.0294 132.426 44.4853C132.328 44.4363 132.23 44.4118 132.132 44.4118C128.309 48.8971 126.176 54.7794 126.103 61.0294Z" fill="#1A2A6C"/>
<path fill-rule="evenodd" clip-rule="evenodd" d="M131.176 78.75C127.279 74.0441 125.147 68.0147 125.073 61.6177C125.073 61.3235 125.294 61.103 125.515 61.103C125.956 61.0049 126.446 60.9314 126.985 60.8824C127.573 60.8333 128.186 60.8088 128.823 60.8088C134.191 60.8088 139.485 62.7941 143.529 66.3235C143.676 66.4706 143.75 66.6912 143.676 66.8382C141.912 72.5735 137.426 77.0588 131.691 78.8971C131.642 78.8971 131.593 78.8971 131.544 78.8971C131.397 78.8971 131.274 78.8481 131.176 78.75ZM128.823 61.9118C128.235 61.9118 127.647 61.9363 127.059 61.9853C126.716 61.9853 126.397 62.0098 126.103 62.0588C126.25 67.8677 128.235 73.4559 131.765 77.7941C136.838 76.0294 140.882 71.9853 142.647 66.8382C138.75 63.6765 133.823 61.9118 128.823 61.9118Z" fill="#1A2A6C"/>
<defs>
<linearGradient id="paint0_linear_203_571" x1="62424" y1="45900" x2="63648" y2="-9828" gradientUnits="userSpaceOnUse">
<stop stop-color="#EEF1AF"/>
<stop offset="1" stop-color="white"/>
</linearGradient>
<linearGradient id="paint1_linear_203_571" x1="34066.2" y1="8766.01" x2="34277.6" y2="5946.69" gradientUnits="userSpaceOnUse">
<stop stop-color="#459B3C"/>
<stop offset="1" stop-color="#47B749"/>
</linearGradient>
<linearGradient id="paint2_linear_203_571" x1="14499.3" y1="2177.89" x2="13075.8" y2="2283.16" gradientUnits="userSpaceOnUse">
<stop stop-color="#45B649"/>
<stop offset="1" stop-color="#DCE35B"/>
</linearGradient>
<linearGradient id="paint3_linear_203_571" x1="11827.3" y1="1964.23" x2="11818.7" y2="1851.88" gradientUnits="userSpaceOnUse">
<stop stop-color="white" stop-opacity="0.3"/>
<stop offset="1" stop-color="white" stop-opacity="0.1"/>
</linearGradient>
<linearGradient id="paint4_linear_203_571" x1="8643" y1="769.592" x2="8178.87" y2="840.097" gradientUnits="userSpaceOnUse">
<stop stop-color="#45B649"/>
<stop offset="1" stop-color="#DCE35B"/>
</linearGradient>
<linearGradient id="paint5_linear_203_571" x1="22399.9" y1="6297.06" x2="20330.4" y2="3070.53" gradientUnits="userSpaceOnUse">
<stop offset="0.11" stop-color="#45B649"/>
<stop offset="1" stop-color="#E100FF"/>
</linearGradient>
<linearGradient id="paint6_linear_203_571" x1="29587.5" y1="7857.08" x2="29621.4" y2="4935.67" gradientUnits="userSpaceOnUse">
<stop stop-color="#45B649"/>
<stop offset="1" stop-color="#DCE35B"/>
</linearGradient>
<linearGradient id="paint7_linear_203_571" x1="25618.9" y1="6706.33" x2="25564.9" y2="4410.68" gradientUnits="userSpaceOnUse">
<stop stop-color="white" stop-opacity="0.3"/>
<stop offset="1" stop-color="white" stop-opacity="0.1"/>
</linearGradient>
<linearGradient id="paint8_linear_203_571" x1="22187.3" y1="6581.52" x2="22130.6" y2="4353.75" gradientUnits="userSpaceOnUse">
<stop stop-color="white" stop-opacity="0.3"/>
<stop offset="1" stop-color="white" stop-opacity="0.1"/>
</linearGradient>
<linearGradient id="paint9_linear_203_571" x1="18399.5" y1="5219.43" x2="17079.9" y2="3848.27" gradientUnits="userSpaceOnUse">
<stop stop-color="white" stop-opacity="0.3"/>
<stop offset="1" stop-color="white" stop-opacity="0.2"/>
</linearGradient>
<linearGradient id="paint10_linear_203_571" x1="11302.5" y1="1866.05" x2="11756.6" y2="4740.97" gradientUnits="userSpaceOnUse">
<stop stop-color="#FFFFFD"/>
<stop offset="1" stop-color="#FDC830"/>
</linearGradient>
<linearGradient id="paint11_linear_203_571" x1="12350" y1="2357.43" x2="13335" y2="3281.92" gradientUnits="userSpaceOnUse">
<stop stop-color="#F37335"/>
<stop offset="1" stop-color="#FDC830"/>
</linearGradient>
<linearGradient id="paint12_linear_203_571" x1="12111.6" y1="1643.53" x2="12146.4" y2="2144.53" gradientUnits="userSpaceOnUse">
<stop stop-color="white" stop-opacity="0.3"/>
<stop offset="1" stop-color="white" stop-opacity="0.2"/>
</linearGradient>
<linearGradient id="paint13_linear_203_571" x1="9695.59" y1="2098.15" x2="9913.13" y2="1447.06" gradientUnits="userSpaceOnUse">
<stop offset="0.14" stop-color="#F37335"/>
<stop offset="1" stop-color="#FDC830"/>
</linearGradient>
<linearGradient id="paint14_linear_203_571" x1="9617.94" y1="769.468" x2="9616.47" y2="692.402" gradientUnits="userSpaceOnUse">
<stop stop-color="white" stop-opacity="0.3"/>
<stop offset="1" stop-color="white" stop-opacity="0.2"/>
</linearGradient>
</defs>
</svg>
