<svg width="180" height="119" viewBox="0 0 180 119" fill="none" xmlns="http://www.w3.org/2000/svg">
<path fill-rule="evenodd" clip-rule="evenodd" d="M11.3067 86.8862C17.353 86.8862 21.8878 90.0303 21.8878 96.4395C21.8878 102.788 17.353 106.356 11.3067 106.356H7.07421V117.844H0V86.8862H11.3067ZM9.06953 100.732C11.8509 100.732 14.4507 99.8254 14.4507 96.6209C14.4507 93.4768 11.8509 92.5094 9.06953 92.5094H7.07421V100.732H9.06953Z" fill="#1A2A6C"/>
<path fill-rule="evenodd" clip-rule="evenodd" d="M31.5015 98.0115C34.1014 98.0115 36.2177 98.9184 37.7897 100.43V98.6161H44.4407V117.844H37.9106V115.667H37.7897C36.3991 117.239 34.1619 118.388 31.5015 118.388C25.8784 118.388 21.9482 113.853 21.9482 108.23C21.9482 102.607 25.8784 98.0115 31.5015 98.0115ZM33.4968 112.765C36.0967 112.765 37.9711 110.89 37.9711 108.23C37.9711 105.569 35.9758 103.695 33.4968 103.695C30.9573 103.695 28.962 105.569 28.962 108.23C28.962 110.89 30.7759 112.765 33.4968 112.765Z" fill="#1A2A6C"/>
<path d="M48.7939 98.6161H55.3845V101.397H55.5054C55.5054 101.397 57.5612 98.0115 61.3704 98.0115C63.8494 98.0115 65.6028 99.2207 65.6028 99.2207L62.8215 104.844C62.8215 104.844 61.5518 103.816 59.3751 103.816C55.8682 103.816 55.3845 107.202 55.3845 107.746V117.844H48.7939V98.6161Z" fill="#1A2A6C"/>
<path d="M67.2959 98.6161H73.8864V101.397H74.0073C74.0073 101.397 76.0631 98.0115 79.8723 98.0115C82.3514 98.0115 84.1048 99.2207 84.1048 99.2207L81.3235 104.844C81.3235 104.844 80.0537 103.816 77.877 103.816C74.3701 103.816 73.8864 107.202 73.8864 107.746V117.844H67.2959V98.6161Z" fill="#1A2A6C"/>
<path fill-rule="evenodd" clip-rule="evenodd" d="M95.7743 98.0115C102.123 98.0115 107.262 102.244 107.262 108.23C107.262 114.155 102.365 118.388 95.7743 118.388C88.8209 118.388 84.1653 114.155 84.1653 108.23C84.1653 102.244 89.2442 98.0115 95.7743 98.0115ZM95.7138 112.765C98.3137 112.765 100.188 110.89 100.188 108.23C100.188 105.569 98.1928 103.695 95.7138 103.695C93.1743 103.695 91.179 105.569 91.179 108.23C91.179 110.89 92.9929 112.765 95.7138 112.765Z" fill="#1A2A6C"/>
<path d="M111.072 91.4209H117.723V98.6161H121.774V103.635H117.723V109.802C117.723 111.555 118.206 112.462 119.234 112.462C120.081 112.462 120.867 111.858 120.867 111.858L122.56 117.239C122.56 117.239 120.383 118.388 117.662 118.388C112.402 118.388 111.072 114.458 111.072 111.072V103.635H108.29V98.6161H111.072V91.4209Z" fill="#1A2A6C"/>
<path fill-rule="evenodd" clip-rule="evenodd" d="M135.922 86.8862C141.968 86.8862 146.503 90.0303 146.503 96.4395C146.503 102.788 141.968 106.356 135.922 106.356H131.69V117.844H124.615V86.8862H135.922ZM133.685 100.732C136.466 100.732 139.066 99.8254 139.066 96.6209C139.066 93.4768 136.466 92.5094 133.685 92.5094H131.69V100.732H133.685Z" fill="url(#paint0_linear_203_634)"/>
<path fill-rule="evenodd" clip-rule="evenodd" d="M156.117 98.0115C158.656 98.0115 160.833 98.9184 162.405 100.43V98.6161H169.056V117.844H162.466V115.667H162.405C160.954 117.239 158.717 118.388 156.117 118.388C150.433 118.388 146.503 113.853 146.503 108.23C146.503 102.607 150.433 98.0115 156.117 98.0115ZM158.052 112.765C160.652 112.765 162.526 110.89 162.526 108.23C162.526 105.569 160.531 103.695 158.052 103.695C155.573 103.695 153.577 105.569 153.577 108.23C153.577 110.89 155.391 112.765 158.052 112.765Z" fill="url(#paint1_linear_203_634)"/>
<path d="M173.349 85.5559H180V117.843H173.349V85.5559Z" fill="url(#paint2_linear_203_634)"/>
<path d="M40.3291 89.4863L40.6314 89.2444" stroke="#231F20" stroke-width="3" stroke-miterlimit="10"/>
<path d="M57.3798 71.4074C57.4201 71.4477 57.4604 71.4881 57.5008 71.5284C58.831 72.3749 60.2014 73.181 61.6122 73.9469C63.4665 74.9143 65.3811 75.7407 67.3563 76.4259C67.5981 76.5065 67.8602 76.5871 68.1423 76.6678C69.8353 77.2321 71.5686 77.6755 73.3422 77.998C74.4305 78.2398 75.5189 78.4212 76.6072 78.5421C78.2599 78.7034 79.9125 78.784 81.5652 78.784C88.3371 78.784 94.6859 77.2724 100.369 74.5515C105.872 71.8911 110.709 68.0819 114.639 63.4867C117.36 60.2821 119.597 56.7148 121.29 52.8451C121.108 41.478 112.099 32.2875 100.853 31.8643C107.927 32.227 113.611 38.1525 113.611 45.3476C114.034 51.2731 111.978 57.0776 108.23 61.6123C107.383 62.6201 106.476 63.5673 105.509 64.4541C101.216 68.2633 96.1974 70.8633 90.7557 72.4353C88.4581 73.1206 86.1 73.6244 83.6814 73.9469C81.3435 74.2694 78.9855 74.4306 76.6072 74.4306C74.7933 74.4306 72.9794 74.35 71.1655 74.1888C68.3237 73.9469 65.5424 73.5237 62.8215 72.919C62.5393 72.8384 62.2774 72.7779 62.0355 72.7376C61.3906 72.5764 60.7456 72.395 60.1006 72.1935C59.2138 71.9919 58.3674 71.7501 57.5612 71.4679C57.4806 71.4276 57.4201 71.4074 57.3798 71.4074Z" fill="url(#paint3_linear_203_634)"/>
<path d="M36.8223 80.6583C37.2657 80.9002 37.7292 81.1219 38.213 81.3234C40.692 82.4118 43.4128 83.1373 46.1941 83.5001C47.7662 83.6613 49.3383 83.7017 50.9103 83.621C55.8079 83.3792 60.2822 81.928 64.1518 79.57C62.3379 79.1669 60.6047 78.5622 58.952 77.7561C59.8388 77.7964 60.7255 77.7964 61.6123 77.7561C61.6123 77.7561 61.6325 77.7561 61.6729 77.7561C63.6681 77.6351 65.6029 77.1514 67.3564 76.4259C65.8246 75.9019 64.313 75.2771 62.8216 74.5515C62.4185 74.35 62.0154 74.1484 61.6123 73.9469C60.2015 73.181 58.831 72.3748 57.5008 71.5283L55.6265 73.4632C51.6359 77.7561 46.1941 80.356 40.3292 80.6583C40.2889 80.6583 40.2687 80.6583 40.2687 80.6583C39.0998 80.7389 37.9509 80.7389 36.8223 80.6583Z" fill="url(#paint4_linear_203_634)"/>
<path d="M36.8223 80.6583C37.2657 80.9002 37.7292 81.1219 38.213 81.3234C39.9059 81.4444 41.6191 81.4645 43.3524 81.3839C45.4887 81.2629 47.6251 80.9405 49.7615 80.4165C54.5986 79.2677 59.0124 77.2724 62.8216 74.5515C62.4185 74.35 62.0154 74.1484 61.6123 73.9469C60.2015 73.181 58.831 72.3748 57.5008 71.5283L55.6265 73.4632C51.6359 77.7561 46.1941 80.356 40.3292 80.6583C40.2889 80.6583 40.2687 80.6583 40.2687 80.6583C39.0998 80.7389 37.9509 80.7389 36.8223 80.6583Z" fill="url(#paint5_linear_203_634)"/>
<path d="M58.9519 77.7562C60.5844 78.6027 62.3378 79.2073 64.1518 79.5701C64.7967 79.691 65.4618 79.7918 66.147 79.8724C67.316 80.0337 68.5252 80.074 69.7748 79.9934C72.1934 79.8724 74.491 79.3887 76.6072 78.5423C75.5189 78.4213 74.4305 78.2399 73.3422 77.9981C71.5686 77.6756 69.8353 77.2322 68.1423 76.6679C67.8602 76.5873 67.5981 76.5066 67.3563 76.426C65.6028 77.1516 63.6681 77.6353 61.6728 77.7562C61.6325 77.7562 61.6122 77.7562 61.6122 77.7562C60.7254 77.7965 59.8387 77.7965 58.9519 77.7562Z" fill="url(#paint6_linear_203_634)"/>
<path d="M88.5791 32.2876C88.5791 33.2147 88.6194 34.1418 88.7 35.0689C88.7806 35.9557 88.8814 36.8223 89.0023 37.6688C91.4209 34.2224 95.2906 31.9852 99.7649 31.8643C99.8858 31.8643 100.007 31.8643 100.128 31.8643C100.249 31.8643 100.369 31.8643 100.49 31.8643C100.611 31.8643 100.732 31.8643 100.853 31.8643C112.099 32.2876 121.108 41.478 121.29 52.8452C123.648 47.5244 124.918 41.6594 124.918 35.4921C124.918 34.9681 124.918 34.4441 124.918 33.9201C123.426 34.3232 121.895 34.5247 120.322 34.5247C114.155 34.5247 108.774 31.2597 105.811 26.3017C104.239 23.7622 103.393 20.7995 103.393 17.5949C103.393 12.6974 105.448 8.28352 108.774 5.19988C109.459 4.63556 110.185 4.09139 110.951 3.56737C112.644 2.47902 114.518 1.63253 116.513 1.08836C117.319 0.846504 118.126 0.665117 118.932 0.544189C115.667 0.665117 112.523 1.33022 109.56 2.3581C97.3463 6.77194 88.5791 18.5019 88.5791 32.2876Z" fill="url(#paint7_linear_203_634)"/>
<path d="M57.3193 71.4074C58.8511 71.8911 60.4232 72.3345 62.0355 72.7376C71.226 74.9143 81.5048 75.1562 90.7557 72.4353C96.1974 70.8633 101.216 68.2633 105.509 64.4541C106.476 63.5673 107.383 62.6201 108.23 61.6123C111.978 57.0776 114.034 51.2731 113.611 45.3476C113.611 38.2129 108.109 32.4084 101.095 31.8643C101.014 31.8643 100.934 31.8643 100.853 31.8643C100.732 31.8643 100.611 31.8643 100.49 31.8643C100.369 31.8643 100.248 31.8643 100.128 31.8643C100.007 31.8643 99.8857 31.8643 99.7648 31.8643C95.2905 31.9852 91.4208 34.2223 89.0023 37.6688L79.2676 48.0685L57.6217 71.0447L57.3193 71.4074Z" fill="url(#paint8_linear_203_634)"/>
<path d="M57.6218 71.0447C65.5426 71.9516 73.8865 71.5888 81.5049 69.5331C87.4908 67.961 93.0535 65.3611 97.7696 61.5519C98.858 60.6651 99.8657 59.7178 100.793 58.7101C104.904 54.1753 107.202 48.3708 106.658 42.3849C106.658 38.1525 104.542 34.3433 101.095 31.8643C101.015 31.8643 100.934 31.8643 100.853 31.8643C100.732 31.8643 100.611 31.8643 100.491 31.8643C100.37 31.8643 100.249 31.8643 100.128 31.8643C100.007 31.8643 99.8859 31.8643 99.765 31.8643C99.6844 31.8643 99.6037 31.8643 99.5231 31.8643C95.1697 32.0456 91.3605 34.2828 89.0024 37.6688L79.2678 48.0685L57.6823 70.9842L57.6218 71.0447Z" fill="url(#paint9_linear_203_634)"/>
<path d="M57.6821 70.9842C66.3889 69.654 75.2166 66.8122 82.7745 62.2774C87.9744 59.1938 92.5092 55.2637 95.8951 50.4266C96.7013 49.3382 97.3866 48.2096 97.9509 47.0406C100.369 42.2035 101.095 36.7618 99.523 31.8643C97.1044 31.9852 94.8673 32.7108 92.9324 33.92C91.3604 34.8874 90.0302 36.1572 89.0023 37.6688L79.2677 48.0685L59.2542 69.3517L57.6821 70.9842Z" fill="url(#paint10_linear_203_634)"/>
<path d="M59.2544 69.3518C65.1798 67.3565 70.9843 64.6357 76.0632 61.2497C81.2631 57.7428 85.7979 53.4499 89.0629 48.4314C89.7884 47.2625 90.4334 46.0733 90.9978 44.8641C92.5698 41.2967 93.2953 37.548 92.9326 33.9202C91.3605 34.8876 90.0303 36.1573 89.0024 37.6689L79.2678 48.0686L59.2544 69.3518Z" fill="url(#paint11_linear_203_634)"/>
<path d="M108.774 5.1998C109.459 4.63548 110.185 4.09131 110.951 3.56729C112.644 2.47894 114.518 1.63245 116.513 1.08828C117.319 0.846424 118.126 0.665037 118.932 0.54411C119.375 0.503801 119.839 0.483643 120.322 0.483643C122.177 0.523952 124.011 0.68519 125.825 0.967353C122.076 5.26027 119.778 11.1252 119.778 17.5948C119.778 17.6755 119.778 17.7561 119.778 17.8367C119.839 24.004 121.955 29.5666 125.462 33.7386C125.26 33.8192 125.079 33.8797 124.918 33.92C123.426 34.3231 121.894 34.5246 120.322 34.5246C114.155 34.5246 108.774 31.2596 105.811 26.3016C104.239 23.7621 103.393 20.7994 103.393 17.5948C103.393 12.6973 105.448 8.28344 108.774 5.1998Z" fill="url(#paint12_linear_203_634)"/>
<path d="M119.778 17.595C119.778 17.6756 119.778 17.7562 119.778 17.8369C120.222 17.7562 120.665 17.6958 121.108 17.6555C121.673 17.6152 122.237 17.595 122.801 17.595C128.062 17.595 132.838 19.4694 136.466 22.6739C138.582 24.4274 140.275 26.6645 141.545 29.1435C141.586 29.1839 141.606 29.2242 141.606 29.2645C142.634 26.7855 143.238 24.1251 143.238 21.2228C143.238 19.288 142.936 17.3532 142.452 15.5392C140.336 8.04176 133.987 2.53958 126.308 1.08845C126.147 1.04815 125.986 1.00784 125.825 0.967529C124.253 2.78144 122.922 4.89766 121.895 7.19528C120.564 10.3394 119.778 13.8463 119.778 17.595Z" fill="url(#paint13_linear_203_634)"/>
<path d="M119.778 17.595C119.778 17.6757 119.778 17.7563 119.778 17.8369C120.222 17.7563 120.665 17.6958 121.108 17.6555C121.673 17.6152 122.237 17.595 122.801 17.595C128.062 17.595 132.838 19.4694 136.466 22.674C138.582 24.4274 140.275 26.6646 141.545 29.1436C141.586 28.6196 141.606 28.1157 141.606 27.632C141.606 25.5762 141.303 23.6414 140.638 21.767C138.159 14.4509 130.843 8.94876 121.895 7.19531C120.564 10.3394 119.778 13.8463 119.778 17.595Z" fill="url(#paint14_linear_203_634)"/>
<path d="M119.778 17.8368C119.819 19.5298 120 21.2026 120.323 22.8553C121.109 27.0273 122.922 30.7156 125.401 33.7387C130.662 32.1062 134.834 27.9342 136.466 22.6739C132.838 19.4693 128.062 17.595 122.801 17.595C122.237 17.595 121.673 17.6151 121.108 17.6554C120.665 17.6957 120.222 17.7562 119.778 17.8368Z" fill="url(#paint15_linear_203_634)"/>
<path d="M119.778 17.8368C119.819 19.5298 120 21.2026 120.323 22.8553C125.462 24.9111 131.327 24.9111 136.466 22.6739C132.838 19.4693 128.062 17.595 122.801 17.595C122.237 17.595 121.673 17.6151 121.108 17.6554C120.665 17.6957 120.222 17.7562 119.778 17.8368Z" fill="url(#paint16_linear_203_634)"/>
<path d="M110.709 12.1532C110.407 13.1811 111.011 14.3299 112.039 14.6322C113.127 14.8741 114.216 14.2694 114.518 13.2416C114.639 12.8788 114.639 12.4555 114.518 12.1532C114.337 12.516 113.913 12.7579 113.49 12.6369C113.067 12.516 112.765 12.0323 112.946 11.609C113.006 11.2463 113.309 11.0044 113.611 11.0044C113.49 10.9238 113.329 10.8432 113.127 10.7626C112.1 10.4602 111.011 11.1253 110.709 12.1532Z" fill="#1A2A6C"/>
<path fill-rule="evenodd" clip-rule="evenodd" d="M76.5469 79.0259C75.4989 78.905 74.4105 78.7437 73.2818 78.5422C71.4679 78.1794 69.654 77.6957 67.961 77.1515C67.7192 77.0709 67.4773 76.9903 67.2355 76.9097C65.1797 76.1841 63.2449 75.3376 61.3705 74.3702C59.9194 73.6446 58.5287 72.7982 57.1985 71.8912L57.0776 71.8307C57.0776 71.8307 57.0776 71.8106 57.0776 71.7703C56.8357 71.6493 56.7753 71.4075 56.8358 71.1656C56.9567 70.9238 57.259 70.8029 57.5009 70.9238C57.5412 70.9238 57.5815 70.9439 57.6218 70.9842C57.6621 70.9842 57.6822 70.9842 57.6822 70.9842C58.5287 71.2664 59.3752 71.5284 60.2217 71.7703C60.8667 71.9315 61.5116 72.0927 62.1565 72.254C62.3984 72.2943 62.6604 72.3548 62.9426 72.4354C65.6634 73.04 68.4447 73.4633 71.2261 73.7051C73.04 73.8865 74.8539 73.947 76.6073 73.947C78.9654 73.947 81.3235 73.7656 83.6211 73.4633C86.0396 73.1005 88.3977 72.6168 90.6349 71.9517C96.258 70.3192 101.156 67.6588 105.207 64.0914C106.134 63.2449 107.02 62.3178 107.867 61.3101C111.676 56.6544 113.49 50.9708 113.067 45.3477C113.067 38.3944 107.686 32.7108 100.793 32.348C100.551 32.348 100.309 32.1062 100.309 31.8643C100.369 31.562 100.551 31.3806 100.853 31.3806C112.402 31.8039 121.592 41.2362 121.774 52.8452C121.814 52.9258 121.814 52.9863 121.774 53.0266C120.081 56.9567 117.783 60.5845 115.002 63.8495C111.011 68.5657 106.174 72.3144 100.611 74.9748C94.6254 77.8771 88.2768 79.3282 81.5653 79.3282C79.8723 79.3282 78.1794 79.2073 76.5469 79.0259ZM100.188 74.0679C105.569 71.468 110.346 67.7797 114.276 63.1845C116.937 60.0403 119.174 56.5334 120.806 52.7242C120.625 44.5012 115.667 37.427 108.532 34.1619C111.918 36.7619 114.095 40.7525 114.095 45.2872C114.518 51.2127 112.583 57.0776 108.593 61.9147C107.746 62.9627 106.839 63.9302 105.872 64.817C101.7 68.5052 96.6812 71.2261 90.8767 72.9191C88.6396 73.5842 86.2211 74.1283 83.7421 74.4307C81.4445 74.733 79.0259 74.9144 76.6073 74.9144C74.7934 74.9144 72.9795 74.8539 71.1052 74.6725C68.3238 74.4307 65.482 74.0074 62.7007 73.4028C62.4589 73.3222 62.1968 73.2617 61.9147 73.2214C61.5116 73.1408 61.1287 73.04 60.7659 72.9191C61.1287 73.1206 61.4713 73.302 61.7938 73.4633C63.6681 74.4307 65.603 75.2771 67.5378 75.9422C67.7797 76.0229 68.0215 76.1035 68.2633 76.1841C69.9563 76.7283 71.7098 77.212 73.4633 77.5143C74.5516 77.7562 75.6198 77.9375 76.6678 78.0585C78.3003 78.2399 79.9328 78.3003 81.5653 78.3003C88.0954 78.3003 94.3232 76.9097 100.128 74.1283C100.128 74.088 100.148 74.0679 100.188 74.0679Z" fill="#1A2A6C"/>
<path fill-rule="evenodd" clip-rule="evenodd" d="M46.1338 83.9839C42.8083 83.6211 39.6037 82.6537 36.5806 81.1421C36.3387 81.0212 36.2782 80.7793 36.3387 80.5374C36.3992 80.2956 36.5805 80.1747 36.8224 80.1747C37.9107 80.2351 39.0596 80.2351 40.2084 80.1747C40.2487 80.1747 40.289 80.1747 40.3293 80.1747C46.0129 79.8723 51.2732 77.3934 55.2638 73.1609L57.1382 71.1656C57.3196 70.9842 57.5614 70.9237 57.7428 71.1051C59.073 71.9516 60.4032 72.7377 61.7938 73.4632C63.6682 74.4306 65.6031 75.2771 67.5379 75.9422C67.7193 76.0027 67.8402 76.1841 67.8402 76.4259C67.8402 76.6073 67.7797 76.7887 67.5379 76.8492C65.6635 77.6957 63.7287 78.1189 61.6729 78.2398C61.6326 78.2398 61.6124 78.2398 61.6124 78.2398C61.5318 78.2398 61.4512 78.2398 61.3706 78.2398C62.2977 78.6026 63.2651 78.8848 64.2728 79.0863C64.4542 79.1468 64.6356 79.2677 64.6356 79.5096C64.6961 79.691 64.5752 79.8724 64.3938 79.9933C60.4032 82.4723 55.7475 83.8629 50.9709 84.1048C50.4468 84.1451 49.943 84.1653 49.4593 84.1653C48.3306 84.1653 47.2221 84.1048 46.1338 83.9839ZM58.7102 78.1794C58.5288 78.1189 58.4079 77.8771 58.4684 77.6352C58.5288 77.3933 58.7707 77.2724 58.9521 77.2724C59.8389 77.3127 60.7055 77.3127 61.552 77.2724L61.6124 77.7561V77.2724C61.6527 77.2724 61.6729 77.2724 61.6729 77.2724C63.1241 77.1918 64.555 76.9096 65.9658 76.4259C64.3938 75.8213 62.8621 75.136 61.3706 74.3702C60.0404 73.6849 58.7707 72.9392 57.5614 72.133L55.9894 73.826C51.8174 78.2398 46.3152 80.8398 40.3293 81.1421C40.3293 81.1421 40.3091 81.1421 40.2688 81.1421C39.9061 81.1824 39.5432 81.2026 39.1805 81.2026C41.4176 82.1095 43.8362 82.7141 46.2547 83.0165C47.7663 83.1978 49.3384 83.1979 50.9104 83.1374C55.0824 82.956 59.1939 81.7467 62.8217 79.7514C61.4109 79.3886 60.0404 78.8646 58.7102 78.1794Z" fill="#1A2A6C"/>
<path fill-rule="evenodd" clip-rule="evenodd" d="M66.0868 80.4167C65.3612 80.2957 64.6961 80.1748 64.0915 80.0539C62.2171 79.6911 60.4032 79.026 58.7102 78.1795C58.5288 78.119 58.4079 77.8772 58.4684 77.6353C58.5288 77.3935 58.7707 77.2725 58.9521 77.2725C59.8389 77.3129 60.7055 77.3129 61.552 77.2725L61.6124 77.7562V77.2725C61.6527 77.2725 61.673 77.2725 61.673 77.2725C63.5473 77.1516 65.4217 76.7284 67.1751 75.9423C67.2961 75.902 67.417 75.902 67.5379 75.9423C67.7798 76.023 68.0216 76.1036 68.2634 76.1842C69.9564 76.7284 71.7099 77.2121 73.4634 77.5144C74.5517 77.7563 75.6198 77.9376 76.6679 78.0586C76.9097 78.0586 77.0912 78.24 77.0912 78.4818C77.1516 78.6632 77.0307 78.9051 76.7889 78.9655C74.5517 79.8725 72.1936 80.3562 69.775 80.4771C69.3719 80.5174 68.9891 80.5376 68.6263 80.5376C67.7798 80.5376 66.9332 80.4973 66.0868 80.4167ZM73.2819 78.5423C71.468 78.1795 69.6541 77.6958 67.9611 77.1516C67.7596 77.071 67.558 77.0105 67.3565 76.9702C65.5426 77.6958 63.6683 78.119 61.673 78.24C61.6327 78.24 61.6124 78.24 61.6124 78.24C61.5318 78.24 61.4513 78.24 61.3706 78.24C62.2978 78.6027 63.2651 78.8849 64.2729 79.0865C64.8775 79.2074 65.5225 79.3082 66.2077 79.3888C67.3767 79.55 68.5456 79.5903 69.7146 79.5097C71.3269 79.4291 72.9192 79.1671 74.4912 78.7237C74.0881 78.6431 73.685 78.5826 73.2819 78.5423Z" fill="#1A2A6C"/>
<path fill-rule="evenodd" clip-rule="evenodd" d="M121.23 53.3289C120.988 53.2685 120.806 53.0871 120.806 52.8452C120.806 51.1523 120.564 49.4593 120.141 47.8268C120.061 47.5043 119.96 47.1818 119.839 46.8593C119.778 46.6175 119.657 46.3152 119.537 45.9524C119.375 45.4687 119.194 45.0051 118.992 44.5617C118.509 43.554 117.944 42.5664 117.299 41.599C116.574 40.5107 115.768 39.5231 114.881 38.6363C114.76 38.5154 114.639 38.3944 114.518 38.2735C110.83 34.6457 105.993 32.5899 100.853 32.3481H100.793H100.49C100.37 32.3481 100.249 32.3481 100.128 32.3481C100.007 32.3481 99.8859 32.3481 99.765 32.3481C95.6534 32.469 91.7837 34.5248 89.4256 37.9712C89.3047 38.0921 89.1234 38.2131 88.942 38.1526C88.7001 38.0921 88.5791 37.9712 88.5187 37.7294C88.3574 36.8426 88.2567 35.9759 88.2164 35.1294C88.1357 34.162 88.0955 33.2147 88.0955 32.2876C88.0955 18.6833 96.6208 6.46968 109.439 1.93491C112.462 0.786104 115.667 0.181474 118.871 0.0605469C119.174 0.0605469 119.355 0.241936 119.416 0.48379C119.416 0.725644 119.234 0.967495 118.992 1.02796C118.186 1.14889 117.42 1.33028 116.695 1.57214C116.654 1.57214 116.634 1.57214 116.634 1.57214C114.699 2.11631 112.885 2.90233 111.193 3.99068C110.406 4.53485 109.741 5.01855 109.076 5.56273C105.751 8.64637 103.876 13.0602 103.876 17.595C103.876 20.5577 104.662 23.5204 106.235 26.0599C109.197 31.0784 114.518 34.0411 120.323 34.0411C121.834 34.0411 123.346 33.8597 124.736 33.4364C124.918 33.376 125.039 33.4364 125.16 33.4969C125.341 33.6178 125.401 33.7387 125.401 33.8597C125.401 34.3837 125.401 34.9279 125.401 35.4922C125.401 41.599 124.192 47.464 121.774 53.0266C121.653 53.208 121.471 53.3289 121.29 53.3289C121.25 53.3289 121.23 53.3289 121.23 53.3289ZM120.323 35.0085C114.155 35.0085 108.532 31.8644 105.388 26.5436C103.756 23.8832 102.909 20.7391 102.909 17.595C102.909 12.7579 104.904 8.1022 108.411 4.83716C109.137 4.23253 109.903 3.6682 110.709 3.14418C111.475 2.66047 112.261 2.23724 113.067 1.87445C111.938 2.11631 110.83 2.43877 109.741 2.84187C97.3464 7.25571 89.0629 19.1066 89.0629 32.2876C89.0629 33.1744 89.1032 34.0814 89.1838 35.0085C89.2241 35.4922 89.2846 35.9759 89.3652 36.4596C91.9046 33.3155 95.7139 31.4411 99.765 31.3807C100.007 31.3807 100.249 31.3807 100.551 31.3807H100.853C106.235 31.6225 111.374 33.7992 115.244 37.548C115.365 37.6689 115.485 37.7898 115.606 37.9107C116.533 38.8782 117.38 39.9262 118.146 41.0548C118.791 42.0626 119.355 43.1106 119.839 44.1989C120.081 44.6423 120.282 45.1059 120.443 45.5896C120.564 45.9524 120.685 46.3152 120.806 46.557C120.887 46.9198 120.967 47.2624 121.048 47.5849C121.33 48.5926 121.532 49.6205 121.653 50.6685C123.527 45.8315 124.434 40.7525 124.434 35.4922C124.434 35.1697 124.434 34.8473 124.434 34.5248C123.104 34.8473 121.733 35.0085 120.323 35.0085Z" fill="#1A2A6C"/>
<path fill-rule="evenodd" clip-rule="evenodd" d="M61.9146 73.2214C60.3426 72.7981 58.7101 72.3749 57.1381 71.8307C57.0171 71.7703 56.8962 71.6493 56.8357 71.5284C56.7753 71.347 56.8357 71.1656 56.9566 71.0447L88.6396 37.3665C91.179 33.7387 95.351 31.5015 99.7649 31.3806C100.007 31.3806 100.249 31.3806 100.551 31.3806H100.853C108.29 31.7434 114.095 37.8502 114.095 45.2872C114.518 51.2127 112.583 57.0776 108.593 61.9147C107.746 62.9628 106.839 63.9302 105.872 64.817C101.7 68.5052 96.6812 71.2261 90.8767 72.9191C86.3419 74.2493 81.4444 74.9144 76.305 74.9144C71.5888 74.9144 66.6912 74.3702 61.9146 73.2214ZM99.7649 32.348C95.6533 32.469 91.7836 34.5247 89.4255 37.9711C89.4255 37.9711 89.4054 37.9913 89.3651 38.0316L58.2264 71.1656C59.5162 71.5687 60.8263 71.9315 62.1565 72.254C71.9516 74.5516 82.049 74.4911 90.6348 71.9517C96.2579 70.3192 101.156 67.6588 105.207 64.0914C106.134 63.2449 107.02 62.3178 107.867 61.3101C111.676 56.6544 113.49 50.9708 113.067 45.3477C113.067 38.3944 107.686 32.7108 100.793 32.348H100.49C100.369 32.348 100.249 32.348 100.128 32.348C100.007 32.348 99.8858 32.348 99.7649 32.348Z" fill="#1A2A6C"/>
<path fill-rule="evenodd" clip-rule="evenodd" d="M105.388 26.5435C103.755 23.8831 102.909 20.739 102.909 17.5949C102.909 12.7578 104.904 8.10212 108.411 4.83708C109.137 4.23245 109.903 3.66812 110.709 3.1441C112.462 1.9953 114.397 1.14881 116.392 0.604636C117.199 0.362781 118.005 0.181394 118.811 0.0604673C118.851 0.0604673 118.871 0.0604673 118.871 0.0604673C119.355 0.0201582 119.839 0 120.322 0C122.197 0 124.071 0.181393 125.885 0.48371C126.066 0.544174 126.187 0.665105 126.248 0.846495C126.308 0.967422 126.308 1.14881 126.187 1.3302C122.378 5.68357 120.262 11.4276 120.262 17.5949C120.262 17.6352 120.262 17.6957 120.262 17.7763C120.322 23.6413 122.318 29.2039 125.825 33.4364C125.946 33.5573 125.946 33.7387 125.885 33.8596C125.885 34.041 125.764 34.1619 125.583 34.2224C125.381 34.2627 125.2 34.3232 125.039 34.4038C123.527 34.827 121.895 35.0084 120.322 35.0084C114.155 35.0084 108.532 31.8643 105.388 26.5435ZM119.295 17.8368C119.295 17.7561 119.295 17.6755 119.295 17.5949C119.295 11.4881 121.29 5.8045 124.857 1.3302C123.366 1.12865 121.854 1.02788 120.322 1.02788C119.839 1.02788 119.395 1.02788 118.992 1.02788C118.186 1.14881 117.42 1.3302 116.695 1.57206C116.654 1.57206 116.634 1.57206 116.634 1.57206C114.699 2.11623 112.885 2.90225 111.192 3.9906C110.406 4.53477 109.741 5.01847 109.076 5.56265C105.751 8.64629 103.876 13.0601 103.876 17.5949C103.876 20.5576 104.662 23.5203 106.234 26.0598C109.197 31.0783 114.518 34.041 120.322 34.041C121.774 34.041 123.184 33.8596 124.555 33.4968C121.229 29.1434 119.355 23.5808 119.295 17.8368Z" fill="#1A2A6C"/>
<path fill-rule="evenodd" clip-rule="evenodd" d="M141.183 29.5062C139.973 27.0271 138.28 24.8505 136.164 23.0366C132.476 19.832 127.699 18.0785 122.802 18.0785C122.237 18.0785 121.693 18.0987 121.169 18.139C120.685 18.1793 120.242 18.2398 119.839 18.3204C119.718 18.3204 119.597 18.2599 119.476 18.1995C119.355 18.1189 119.295 17.9979 119.295 17.8367C119.295 17.7561 119.295 17.6755 119.295 17.5948C119.295 11.1857 121.471 5.1998 125.462 0.665035C125.522 0.544108 125.704 0.483643 125.885 0.483643C126.087 0.523952 126.268 0.564259 126.429 0.604568C134.471 2.11616 140.759 7.79973 142.936 15.4181C143.42 17.2925 143.722 19.2878 143.722 21.2226C143.722 24.1249 143.178 26.8458 142.089 29.5062C142.029 29.6271 141.848 29.748 141.666 29.8085C141.666 29.8085 141.646 29.8085 141.606 29.8085C141.424 29.8085 141.243 29.6875 141.183 29.5062ZM120.262 17.232C120.544 17.1917 120.806 17.1716 121.048 17.1716C121.653 17.1313 122.237 17.1111 122.802 17.1111C127.941 17.1111 132.899 18.925 136.829 22.311C138.764 23.9435 140.336 25.8783 141.545 28.1155C142.331 25.8783 142.755 23.5807 142.755 21.2226C142.755 19.3483 142.452 17.4739 141.969 15.66C139.913 8.46484 133.927 3.02311 126.248 1.57199C126.167 1.57199 126.087 1.55183 126.006 1.51152C122.378 5.74397 120.383 11.3066 120.262 17.232Z" fill="#1A2A6C"/>
<path fill-rule="evenodd" clip-rule="evenodd" d="M125.039 34.0411C121.411 29.6273 119.355 23.8832 119.295 17.8369C119.295 17.595 119.476 17.3532 119.718 17.2927C120.161 17.2524 120.605 17.2121 121.048 17.1718C121.653 17.1315 122.237 17.1113 122.802 17.1113C127.941 17.1113 132.899 18.9252 136.829 22.3112C136.95 22.4321 137.011 22.6135 136.95 22.7949C135.257 28.2366 131.025 32.5295 125.583 34.2225C125.543 34.2225 125.502 34.2225 125.462 34.2225C125.281 34.2225 125.16 34.1621 125.039 34.0411ZM122.802 18.0787C122.237 18.0787 121.693 18.0989 121.169 18.1392C120.847 18.1795 120.544 18.2198 120.262 18.2601C120.443 23.8228 122.318 29.0831 125.583 33.1946C130.48 31.5017 134.29 27.6924 135.922 22.7949C132.234 19.7717 127.639 18.0787 122.802 18.0787Z" fill="#1A2A6C"/>
<defs>
<linearGradient id="paint0_linear_203_634" x1="29596.5" y1="10061.3" x2="31593.6" y2="8924.84" gradientUnits="userSpaceOnUse">
<stop stop-color="#F37335"/>
<stop offset="1" stop-color="#FDC830"/>
</linearGradient>
<linearGradient id="paint1_linear_203_634" x1="31017" y1="7622.95" x2="32606" y2="6205.84" gradientUnits="userSpaceOnUse">
<stop stop-color="#F37335"/>
<stop offset="1" stop-color="#FDC830"/>
</linearGradient>
<linearGradient id="paint2_linear_203_634" x1="9055.75" y1="10043" x2="9758.55" y2="9926.78" gradientUnits="userSpaceOnUse">
<stop stop-color="#F37335"/>
<stop offset="1" stop-color="#FDC830"/>
</linearGradient>
<linearGradient id="paint3_linear_203_634" x1="86359.9" y1="14164.1" x2="86588.1" y2="11081.2" gradientUnits="userSpaceOnUse">
<stop stop-color="#459B3C"/>
<stop offset="1" stop-color="#47B749"/>
</linearGradient>
<linearGradient id="paint4_linear_203_634" x1="39264" y1="3518.52" x2="37710.8" y2="3633.26" gradientUnits="userSpaceOnUse">
<stop stop-color="#45B649"/>
<stop offset="1" stop-color="#DCE35B"/>
</linearGradient>
<linearGradient id="paint5_linear_203_634" x1="32858.4" y1="3067.47" x2="32849" y2="2945.54" gradientUnits="userSpaceOnUse">
<stop stop-color="white" stop-opacity="0.3"/>
<stop offset="1" stop-color="white" stop-opacity="0.1"/>
</linearGradient>
<linearGradient id="paint6_linear_203_634" x1="23010.9" y1="1132.03" x2="22502.7" y2="1208.15" gradientUnits="userSpaceOnUse">
<stop stop-color="#45B649"/>
<stop offset="1" stop-color="#DCE35B"/>
</linearGradient>
<linearGradient id="paint7_linear_203_634" x1="52401.6" y1="11998.4" x2="50138.2" y2="8466.64" gradientUnits="userSpaceOnUse">
<stop offset="0.11" stop-color="#45B649"/>
<stop offset="1" stop-color="#E100FF"/>
</linearGradient>
<linearGradient id="paint8_linear_203_634" x1="75623.3" y1="12744.2" x2="75665.1" y2="9543.36" gradientUnits="userSpaceOnUse">
<stop stop-color="#45B649"/>
<stop offset="1" stop-color="#DCE35B"/>
</linearGradient>
<linearGradient id="paint9_linear_203_634" x1="65749" y1="11196.9" x2="65691.3" y2="8682.47" gradientUnits="userSpaceOnUse">
<stop stop-color="white" stop-opacity="0.3"/>
<stop offset="1" stop-color="white" stop-opacity="0.1"/>
</linearGradient>
<linearGradient id="paint10_linear_203_634" x1="57044" y1="11005" x2="56979.4" y2="8571.42" gradientUnits="userSpaceOnUse">
<stop stop-color="white" stop-opacity="0.3"/>
<stop offset="1" stop-color="white" stop-opacity="0.1"/>
</linearGradient>
<linearGradient id="paint11_linear_203_634" x1="46050.7" y1="9164.66" x2="44604.2" y2="7660.73" gradientUnits="userSpaceOnUse">
<stop stop-color="white" stop-opacity="0.3"/>
<stop offset="1" stop-color="white" stop-opacity="0.2"/>
</linearGradient>
<linearGradient id="paint12_linear_203_634" x1="29561.1" y1="5355.13" x2="30060.3" y2="8507.33" gradientUnits="userSpaceOnUse">
<stop stop-color="#FFFFFD"/>
<stop offset="1" stop-color="#FDC830"/>
</linearGradient>
<linearGradient id="paint13_linear_203_634" x1="31523.1" y1="5323.62" x2="32601.1" y2="6332.94" gradientUnits="userSpaceOnUse">
<stop stop-color="#F37335"/>
<stop offset="1" stop-color="#FDC830"/>
</linearGradient>
<linearGradient id="paint14_linear_203_634" x1="29992.7" y1="3918.38" x2="30032.4" y2="4467.05" gradientUnits="userSpaceOnUse">
<stop stop-color="white" stop-opacity="0.3"/>
<stop offset="1" stop-color="white" stop-opacity="0.2"/>
</linearGradient>
<linearGradient id="paint15_linear_203_634" x1="23372.7" y1="3832.37" x2="23610.2" y2="3122.02" gradientUnits="userSpaceOnUse">
<stop offset="0.14" stop-color="#F37335"/>
<stop offset="1" stop-color="#FDC830"/>
</linearGradient>
<linearGradient id="paint16_linear_203_634" x1="23289.3" y1="1456.35" x2="23287.4" y2="1372.73" gradientUnits="userSpaceOnUse">
<stop stop-color="white" stop-opacity="0.3"/>
<stop offset="1" stop-color="white" stop-opacity="0.2"/>
</linearGradient>
</defs>
</svg>
