<svg width="180" height="180" viewBox="0 0 180 180" fill="none" xmlns="http://www.w3.org/2000/svg">
<path d="M24.0991 153.118L24.4929 152.823" stroke="#231F20" stroke-width="3" stroke-miterlimit="10"/>
<path d="M48.1202 127.62C48.1858 127.685 48.2514 127.751 48.3171 127.817C50.1548 129.064 52.0909 130.179 54.1255 131.164C56.7508 132.542 59.4746 133.724 62.2968 134.708C62.625 134.839 62.9531 134.971 63.2813 135.102C65.7097 135.889 68.1709 136.513 70.6649 136.972C72.1745 137.301 73.7168 137.53 75.292 137.662C77.5892 137.924 79.9191 138.055 82.2819 138.055C91.8314 138.055 100.79 135.889 108.863 132.05C116.641 128.309 123.433 122.993 128.947 116.495C132.786 111.966 136.035 106.946 138.398 101.432C138.102 85.3853 125.402 72.4885 109.454 71.7993C119.496 72.39 127.47 80.6597 127.47 90.7999C128.159 99.2665 125.206 107.438 119.889 113.837C118.774 115.281 117.527 116.594 116.148 117.775C110.044 123.19 102.956 126.931 95.2771 129.096C91.9955 130.081 88.6482 130.803 85.2354 131.262C81.9537 131.656 78.6393 131.853 75.292 131.853C72.7324 131.919 70.1727 131.82 67.613 131.558C63.5766 131.262 59.6387 130.573 55.7992 129.786C55.471 129.72 55.11 129.622 54.7162 129.49C53.7974 129.293 52.8785 129.064 51.9597 128.801C50.7783 128.473 49.5969 128.112 48.4155 127.718H48.3171C48.2514 127.718 48.1858 127.685 48.1202 127.62Z" fill="url(#paint0_linear_203_670)"/>
<path d="M19.0779 140.714C19.7342 141.042 20.3905 141.37 21.0469 141.698C24.591 143.175 28.4305 144.258 32.3685 144.652C34.5343 144.914 36.7658 145.013 39.063 144.947C45.8559 144.553 52.2551 142.486 57.7682 139.139C55.1429 138.613 52.6817 137.76 50.3846 136.579C51.6316 136.644 52.8786 136.644 54.1256 136.579C54.1256 136.579 54.1584 136.579 54.2241 136.579C56.9806 136.48 59.7372 135.791 62.2969 134.708C60.0654 133.986 57.9323 133.1 55.8977 132.05C55.307 131.788 54.7163 131.492 54.1256 131.164C52.091 130.18 50.1549 129.064 48.3171 127.817L45.659 130.573C40.0475 136.579 32.3684 140.221 24.0987 140.714C24.0331 140.714 24.0003 140.714 24.0003 140.714C22.3595 140.779 20.7187 140.779 19.0779 140.714Z" fill="url(#paint1_linear_203_670)"/>
<path d="M19.0779 140.714C19.7342 141.042 20.3905 141.37 21.0469 141.698C23.4753 141.829 25.9037 141.829 28.3321 141.698C31.3512 141.567 34.3702 141.14 37.3893 140.418C44.1823 138.745 50.3846 135.89 55.8977 132.05C55.307 131.788 54.7163 131.492 54.1256 131.164C52.091 130.18 50.1549 129.064 48.3171 127.817L45.6591 130.573C40.0475 136.579 32.3684 140.221 24.0987 140.714C24.0331 140.714 24.0003 140.714 24.0003 140.714C22.3595 140.779 20.7187 140.779 19.0779 140.714Z" fill="url(#paint2_linear_203_670)"/>
<path d="M50.3848 136.579C52.6819 137.76 55.1431 138.614 57.7684 139.139C58.6873 139.336 59.6061 139.5 60.525 139.631C62.1658 139.828 63.8722 139.893 65.6443 139.828C68.9916 139.631 72.2404 138.843 75.2923 137.662C73.7171 137.531 72.1748 137.301 70.6652 136.973C68.1712 136.513 65.71 135.89 63.2816 135.102C62.9534 134.971 62.6252 134.84 62.2971 134.708C59.7374 135.791 56.9808 136.481 54.2243 136.579C54.1586 136.579 54.1258 136.579 54.1258 136.579C52.8788 136.645 51.6318 136.645 50.3848 136.579Z" fill="url(#paint3_linear_203_670)"/>
<path d="M92.2256 72.3904C92.2256 73.703 92.2584 75.0157 92.324 76.3283C92.4553 77.5754 92.6194 78.7896 92.8163 79.9709C96.1635 75.1469 101.677 71.9966 107.977 71.7997C108.174 71.7997 108.338 71.7997 108.47 71.7997C108.667 71.7997 108.863 71.7997 109.06 71.7997C109.192 71.7997 109.323 71.7997 109.454 71.7997C125.403 72.4888 138.103 85.3856 138.398 101.433C141.647 93.9507 143.517 85.5825 143.517 76.919C143.517 76.1971 143.517 75.4423 143.517 74.6547C141.417 75.2454 139.251 75.5407 137.02 75.5407C128.258 75.5407 120.677 70.9137 116.542 64.0222C114.377 60.3796 113.097 56.1463 113.097 51.6177C113.097 44.7263 116.05 38.524 120.677 34.1923C121.662 33.339 122.679 32.5843 123.729 31.9279H123.828C126.19 30.3528 128.849 29.1714 131.605 28.3838C131.605 28.3838 131.638 28.3838 131.704 28.3838C132.754 28.0556 133.869 27.7931 135.051 27.5962C130.424 27.7931 125.994 28.6791 121.859 30.1559C104.532 36.3581 92.2256 52.8975 92.2256 72.3904Z" fill="url(#paint4_linear_203_670)"/>
<path d="M48.0217 127.62C50.2532 128.342 52.4847 128.965 54.7162 129.49C67.613 132.542 82.1834 132.936 95.2771 129.096C102.956 126.931 110.044 123.19 116.148 117.775C117.527 116.594 118.774 115.281 119.889 113.837C125.206 107.438 128.159 99.2665 127.47 90.7999C127.47 80.7582 119.692 72.5869 109.946 71.7993C109.749 71.7993 109.585 71.7993 109.454 71.7993C109.322 71.7993 109.191 71.7993 109.06 71.7993C108.863 71.7993 108.666 71.7993 108.469 71.7993C108.338 71.7993 108.174 71.7993 107.977 71.7993C101.676 71.9962 96.1632 75.1466 92.8159 79.9706L79.0331 94.7379L48.514 127.128L48.0217 127.62Z" fill="url(#paint5_linear_203_670)"/>
<path d="M48.5142 127.128C59.7373 128.407 71.4527 127.817 82.2821 124.962C90.6502 122.796 98.5261 119.055 105.221 113.64C106.73 112.459 108.141 111.146 109.454 109.702C115.164 103.303 118.413 95.1317 117.724 86.6651C117.724 80.6597 114.672 75.3435 109.946 71.7993C109.749 71.7993 109.585 71.7993 109.454 71.7993C109.323 71.7993 109.191 71.7993 109.06 71.7993C108.863 71.7993 108.666 71.7993 108.469 71.7993C108.338 71.7993 108.174 71.7993 107.977 71.7993C107.846 71.7993 107.748 71.7993 107.682 71.7993C101.48 72.0947 96.0649 75.245 92.8161 79.9706L79.0333 94.7379L48.6126 127.029L48.5142 127.128Z" fill="url(#paint6_linear_203_670)"/>
<path d="M48.6125 127.029C60.8202 125.159 73.3232 121.122 83.9557 114.821C91.3393 110.391 97.7385 104.78 102.562 98.0851C103.678 96.51 104.63 94.902 105.417 93.2612C108.863 86.3697 109.848 78.7892 107.682 71.7993C104.236 71.9962 100.987 72.9807 98.3292 74.7528C96.1633 76.1311 94.2928 77.9031 92.816 79.9706L79.0332 94.7379L50.7784 124.666L48.6125 127.029Z" fill="url(#paint7_linear_203_670)"/>
<path d="M50.7783 124.666C59.1465 121.91 67.3177 118.07 74.5045 113.246C81.8881 108.324 88.1889 102.319 92.816 95.1318C93.9317 93.5566 94.8506 91.883 95.5725 90.1109C97.8368 85.0901 98.8213 79.7738 98.3291 74.7529C96.1632 76.1312 94.2927 77.9033 92.816 79.9707L79.0331 94.738L50.7783 124.666Z" fill="url(#paint8_linear_203_670)"/>
<path d="M120.677 34.1923C121.662 33.339 122.679 32.5843 123.729 31.9279H123.828C126.19 30.3528 128.848 29.1714 131.605 28.3838C131.605 28.3838 131.638 28.3838 131.703 28.3838C132.754 28.0556 133.869 27.7931 135.051 27.5962C135.707 27.5962 136.363 27.5962 137.02 27.5962C139.645 27.5962 142.238 27.7931 144.797 28.1869C139.481 34.1923 136.232 42.5604 136.232 51.6177C136.232 51.749 136.232 51.8802 136.232 52.0115C136.331 60.675 139.382 68.5509 144.206 74.4578C143.944 74.5234 143.714 74.5891 143.517 74.6547C141.417 75.2454 139.251 75.5407 137.02 75.5407C128.258 75.5407 120.677 70.9137 116.542 64.0222C114.377 60.3796 113.097 56.1463 113.097 51.6177C113.097 44.7263 116.05 38.524 120.677 34.1923Z" fill="url(#paint9_linear_203_670)"/>
<path d="M136.232 51.6176C136.232 51.7488 136.232 51.8801 136.232 52.0114C136.888 51.8801 137.512 51.7817 138.102 51.716C138.89 51.6504 139.71 51.6176 140.564 51.6176C147.947 51.6176 154.642 54.3741 159.86 58.8043C162.813 61.364 165.176 64.4159 166.948 67.9601C167.014 68.0257 167.046 68.0913 167.046 68.157C168.523 64.7113 169.311 60.8718 169.311 56.8354C169.311 54.0788 168.917 51.3222 168.228 48.7626C165.274 38.2285 156.315 30.4511 145.486 28.3837C145.224 28.318 144.994 28.2524 144.797 28.1868C142.533 30.7464 140.662 33.6999 139.284 37.0472C137.315 41.4774 136.232 46.3998 136.232 51.6176Z" fill="url(#paint10_linear_203_670)"/>
<path d="M136.232 51.6173C136.232 51.7486 136.232 51.8798 136.232 52.0111C136.888 51.8798 137.512 51.7814 138.102 51.7157C138.89 51.6501 139.71 51.6173 140.564 51.6173C147.947 51.6173 154.642 54.3739 159.86 58.8041C162.813 61.3637 165.176 64.4156 166.948 67.9598C167.014 67.2378 167.046 66.5159 167.046 65.7939C167.046 62.9389 166.554 60.1823 165.668 57.6227C162.124 47.1871 151.885 39.5081 139.284 37.0469C137.315 41.4771 136.232 46.3995 136.232 51.6173Z" fill="url(#paint11_linear_203_670)"/>
<path d="M136.232 52.011C136.298 54.4394 136.56 56.8022 137.02 59.0993C138.102 64.9078 140.662 70.224 144.206 74.4573C151.688 72.0945 157.497 66.2861 159.86 58.804C154.642 54.3738 147.947 51.6172 140.564 51.6172C139.71 51.6172 138.89 51.65 138.102 51.7156C137.512 51.7813 136.888 51.8797 136.232 52.011Z" fill="url(#paint12_linear_203_670)"/>
<path d="M136.232 52.011C136.298 54.4394 136.56 56.8022 137.02 59.0993C144.305 62.0528 152.574 61.9543 159.86 58.804C154.642 54.3738 147.947 51.6172 140.564 51.6172C139.71 51.6172 138.89 51.65 138.102 51.7156C137.512 51.7813 136.888 51.8797 136.232 52.011Z" fill="url(#paint13_linear_203_670)"/>
<path d="M123.434 44.0369C123.04 45.5136 123.827 46.9903 125.304 47.4826C126.879 47.8764 128.356 46.9903 128.848 45.5136C128.98 44.9885 128.98 44.4635 128.848 43.9384C128.553 44.5291 127.962 44.8244 127.372 44.6275C126.781 44.5291 126.387 43.84 126.584 43.2493C126.682 42.757 127.076 42.3632 127.568 42.3632C127.372 42.232 127.142 42.1335 126.879 42.0679C125.403 41.6741 123.827 42.4617 123.434 44.0369Z" fill="#1A2A6C"/>
<path fill-rule="evenodd" clip-rule="evenodd" d="M75.1939 138.351C73.6843 138.219 72.142 137.99 70.5668 137.661C68.0071 137.169 65.5459 136.579 63.0847 135.693C62.7565 135.627 62.3955 135.528 62.0017 135.397C59.1467 134.413 56.3901 133.231 53.732 131.853C51.7631 130.77 49.7941 129.589 47.9236 128.309L47.7266 128.21C47.4313 128.013 47.2344 127.62 47.4313 127.324C47.5298 126.931 47.9235 126.832 48.3173 126.931C48.383 126.996 48.4486 127.029 48.5143 127.029C48.5143 127.029 48.5471 127.029 48.6127 127.029C49.7941 127.423 50.9755 127.784 52.1568 128.112C53.0757 128.374 53.9946 128.604 54.9134 128.801C55.2416 128.932 55.6026 129.031 55.9964 129.096C59.8359 129.982 63.7738 130.573 67.7118 130.869C70.2714 131.065 72.8311 131.262 75.2923 131.164C78.6396 131.164 81.9868 130.967 85.2356 130.573C88.5829 130.081 91.9301 129.392 95.0805 128.407C103.055 126.143 109.946 122.402 115.656 117.283C116.969 116.101 118.216 114.789 119.397 113.345C124.812 106.847 127.372 98.8727 126.781 90.8983C126.781 90.8327 126.781 90.7999 126.781 90.7999C126.781 81.0534 119.2 72.9806 109.454 72.4884C109.06 72.4884 108.765 72.193 108.765 71.7992C108.765 71.4055 109.159 71.1101 109.552 71.1101C125.797 71.7992 138.792 85.0898 139.087 101.432C139.087 101.498 139.087 101.596 139.087 101.728C136.626 107.241 133.377 112.36 129.538 116.889C123.828 123.583 117.035 128.9 109.159 132.641C100.791 136.775 91.7333 138.744 82.2822 138.744C79.9194 138.744 77.5566 138.646 75.1939 138.351ZM108.568 131.459C116.247 127.718 122.942 122.599 128.455 116.003C132.196 111.573 135.346 106.65 137.709 101.334C137.413 89.6185 130.424 79.6751 120.382 75.1465C125.107 78.6907 128.159 84.4007 128.159 90.7999C128.848 99.0696 126.092 107.438 120.48 114.231C119.299 115.74 117.986 117.118 116.542 118.366C110.734 123.583 103.646 127.423 95.4743 129.786C92.2255 130.77 88.8782 131.459 85.3341 131.951C82.0853 132.345 78.738 132.542 75.2923 132.641C72.7326 132.641 70.173 132.542 67.6133 132.247C63.5769 131.951 59.639 131.361 55.701 130.475C55.3072 130.343 54.9134 130.245 54.5196 130.179C53.9946 130.048 53.4695 129.917 52.9444 129.786C53.4039 130.048 53.8961 130.311 54.4212 130.573C56.9808 131.951 59.7374 133.133 62.494 134.019C62.8221 134.15 63.1831 134.281 63.5769 134.413C65.8412 135.2 68.3024 135.791 70.8621 136.283C72.3717 136.611 73.8812 136.841 75.3908 136.972C77.6551 137.268 80.0178 137.366 82.2822 137.366C91.5364 137.366 100.298 135.397 108.47 131.459C108.535 131.459 108.568 131.459 108.568 131.459Z" fill="#1A2A6C"/>
<path fill-rule="evenodd" clip-rule="evenodd" d="M32.2702 145.341C27.5446 144.848 23.016 143.47 18.7827 141.304C18.4873 141.206 18.2904 140.91 18.3889 140.517C18.4873 140.221 18.7827 140.024 19.078 140.024C20.6532 140.123 22.2284 140.123 23.902 140.024C23.9677 140.024 24.0333 140.024 24.0989 140.024C32.0733 139.532 39.5554 136.086 45.167 130.081L47.8251 127.325C48.022 127.029 48.4158 127.029 48.7111 127.226C50.5488 128.407 52.4522 129.523 54.4211 130.573C56.9808 131.952 59.7374 133.133 62.4939 134.019C62.7893 134.117 62.9862 134.413 62.9862 134.708C62.9862 135.004 62.7893 135.2 62.4939 135.397C59.8358 136.48 57.0793 137.169 54.2242 137.268C54.1586 137.268 54.1258 137.268 54.1258 137.268C53.9945 137.268 53.8633 137.268 53.732 137.268C55.1103 137.793 56.4886 138.187 57.8669 138.449C58.1622 138.548 58.3591 138.745 58.4576 139.04C58.4576 139.335 58.3591 139.631 58.0637 139.729C52.3537 143.273 45.8561 145.242 39.0631 145.636C38.4068 145.636 37.7177 145.636 36.9957 145.636C35.4205 145.636 33.8454 145.538 32.2702 145.341ZM50.0894 137.268C49.7941 137.071 49.5971 136.776 49.6956 136.382C49.794 136.086 50.0894 135.89 50.3847 135.89C51.6318 135.955 52.846 135.955 54.0274 135.89L54.1258 136.579V135.89C56.226 135.758 58.2606 135.365 60.2296 134.708C57.9981 133.855 55.8322 132.903 53.732 131.853C51.8943 130.869 50.1222 129.819 48.4158 128.703L46.1515 131.066C40.343 137.268 32.4671 140.91 24.0989 141.403C24.0989 141.403 24.0661 141.403 24.0005 141.403C23.4754 141.403 22.9504 141.436 22.4253 141.501C25.6413 142.748 28.9885 143.569 32.4671 143.962C34.6329 144.258 36.7988 144.356 39.0631 144.258C44.9701 143.864 50.6801 142.289 55.8979 139.434C53.8633 138.909 51.9271 138.187 50.0894 137.268Z" fill="#1A2A6C"/>
<path fill-rule="evenodd" clip-rule="evenodd" d="M60.4265 140.32C59.442 140.189 58.4903 140.024 57.5714 139.828C55.0118 139.335 52.4521 138.449 50.0893 137.268C49.794 137.071 49.5971 136.776 49.6955 136.382C49.794 136.086 50.0893 135.89 50.3847 135.89C51.6317 135.955 52.8459 135.955 54.0273 135.89L54.1257 136.579V135.89C56.8823 135.791 59.442 135.102 62.0016 134.117C62.1329 134.052 62.297 134.019 62.4939 134.019C62.822 134.15 63.183 134.282 63.5768 134.413C65.8411 135.2 68.3023 135.791 70.862 136.283C72.3716 136.612 73.8811 136.841 75.3907 136.973C75.686 137.071 75.9814 137.268 75.9814 137.563C75.9814 137.859 75.8829 138.252 75.5876 138.351C72.4372 139.631 69.0899 140.32 65.6442 140.517C65.1192 140.517 64.5613 140.517 63.9706 140.517C62.7892 140.517 61.6079 140.451 60.4265 140.32ZM70.5667 137.662C68.007 137.169 65.5458 136.579 63.0846 135.693C62.822 135.627 62.5595 135.561 62.297 135.496C59.7373 136.48 56.9807 137.169 54.2242 137.268C54.1585 137.268 54.1257 137.268 54.1257 137.268C53.9945 137.268 53.8632 137.268 53.7319 137.268C55.1102 137.793 56.4885 138.187 57.8668 138.449C58.72 138.646 59.6389 138.81 60.6233 138.941C62.2642 139.138 63.905 139.171 65.5458 139.04C67.8429 138.974 70.0744 138.613 72.2403 137.957C71.7153 137.891 71.1574 137.793 70.5667 137.662Z" fill="#1A2A6C"/>
<path fill-rule="evenodd" clip-rule="evenodd" d="M138.299 102.122C137.906 102.023 137.709 101.728 137.709 101.432C137.709 99.0697 137.315 96.6085 136.724 94.3442C136.593 93.8847 136.462 93.4581 136.33 93.0643C136.232 92.5721 136.035 92.1783 135.838 91.686C135.641 91.0297 135.379 90.4062 135.051 89.8155C134.394 88.306 133.639 86.8949 132.786 85.5822C131.736 84.0727 130.588 82.6616 129.341 81.3489C129.144 81.2177 128.98 81.0536 128.848 80.8567C123.63 75.7373 116.739 72.7839 109.552 72.4885C109.487 72.4885 109.454 72.4885 109.454 72.4885H109.06C108.863 72.4885 108.666 72.4885 108.469 72.4885C108.338 72.4885 108.174 72.4885 107.977 72.4885C102.169 72.6854 96.754 75.6389 93.4067 80.3644C93.2098 80.6598 92.9145 80.7582 92.7176 80.6598C92.4222 80.6598 92.2253 80.3644 92.1269 80.1675C91.93 78.8549 91.7659 77.6079 91.6346 76.4265C91.5034 75.0482 91.4377 73.7027 91.4377 72.3901C91.4377 53.1926 103.547 35.964 121.563 29.5649C125.895 27.9897 130.423 27.1036 134.952 26.9067C135.346 26.9067 135.641 27.2021 135.74 27.4974C135.74 27.8912 135.543 28.1866 135.149 28.285C133.968 28.4819 132.852 28.7116 131.802 28.9742C131.802 29.0398 131.802 29.0726 131.802 29.0726C129.144 29.7618 126.485 30.9431 124.123 32.5183C123.04 33.2075 122.055 33.8966 121.169 34.6842C116.444 39.0159 113.786 45.2182 113.786 51.6174C113.786 55.8507 114.967 59.9855 117.133 63.6281C121.366 70.7164 128.75 74.8513 137.02 74.8513C139.185 74.8513 141.286 74.5888 143.32 74.0637C143.517 73.9981 143.714 74.0309 143.911 74.1622C144.009 74.2606 144.108 74.4575 144.206 74.6544C144.206 75.3764 144.206 76.1311 144.206 76.9187C144.206 85.4838 142.434 93.8519 138.988 101.728C138.89 101.925 138.693 102.122 138.398 102.122C138.332 102.122 138.299 102.122 138.299 102.122ZM137.02 76.2296C128.258 76.2296 120.382 71.7994 115.951 64.3173C113.589 60.4778 112.407 56.146 112.407 51.6174C112.407 44.8244 115.262 38.3268 120.185 33.6013C121.169 32.8137 122.252 32.0589 123.434 31.3369C123.434 31.3369 123.434 31.3041 123.434 31.2385C124.484 30.5822 125.599 29.9915 126.781 29.4664C125.206 29.8602 123.63 30.3196 122.055 30.8447C104.63 37.1454 92.9145 53.7833 92.9145 72.3901C92.9145 73.7027 92.9473 75.0154 93.0129 76.328C93.0785 76.9187 93.177 77.575 93.3083 78.297C96.8524 73.8668 102.267 71.2087 107.977 71.1102C108.305 71.1102 108.666 71.1102 109.06 71.1102H109.454C109.519 71.1102 109.552 71.1102 109.552 71.1102C117.133 71.4056 124.32 74.5559 129.833 79.8722C129.964 80.0034 130.128 80.1675 130.325 80.3644C131.638 81.7427 132.819 83.2194 133.869 84.7946C134.854 86.1729 135.674 87.6496 136.33 89.2248C136.659 89.8811 136.954 90.5375 137.216 91.1938C137.413 91.7845 137.512 92.1783 137.709 92.5721C137.84 93.0315 137.971 93.5237 138.102 94.0488C138.431 95.4271 138.693 96.871 138.89 98.3805C141.45 91.4891 142.828 84.3024 142.828 76.9187C142.828 76.4593 142.828 76.0327 142.828 75.6389C140.925 76.0327 138.988 76.2296 137.02 76.2296Z" fill="#1A2A6C"/>
<path fill-rule="evenodd" clip-rule="evenodd" d="M54.5197 130.179C52.2554 129.687 49.9911 128.998 47.8252 128.309C47.6283 128.21 47.4314 128.014 47.4314 127.817C47.333 127.521 47.4314 127.324 47.5299 127.127L92.3241 79.5767C95.8682 74.4574 101.677 71.307 107.977 71.1101C108.306 71.1101 108.667 71.1101 109.06 71.1101H109.553C119.988 71.7008 128.159 80.2658 128.159 90.7999C128.849 99.0696 126.092 107.438 120.48 114.231C119.299 115.74 117.986 117.118 116.542 118.366C110.734 123.583 103.646 127.423 95.4744 129.786C89.0752 131.656 82.0854 132.641 74.8986 132.641C68.2041 132.641 61.3127 131.755 54.5197 130.179ZM107.977 72.4884C102.169 72.6853 96.7543 75.6388 93.407 80.3643C93.407 80.4299 93.3742 80.4627 93.3085 80.4627L49.3019 127.324C51.1396 127.849 52.9774 128.342 54.8151 128.801C68.6963 132.148 82.9714 131.951 95.0806 128.407C103.055 126.143 109.946 122.402 115.656 117.283C116.969 116.101 118.216 114.789 119.397 113.345C124.812 106.847 127.372 98.8727 126.781 90.8983C126.781 90.8327 126.781 90.7999 126.781 90.7999C126.781 81.0534 119.201 72.9806 109.454 72.4884H109.06C108.863 72.4884 108.667 72.4884 108.47 72.4884C108.338 72.4884 108.174 72.4884 107.977 72.4884Z" fill="#1A2A6C"/>
<path fill-rule="evenodd" clip-rule="evenodd" d="M115.952 64.3173C113.589 60.4778 112.407 56.1461 112.407 51.6174C112.407 44.8245 115.262 38.3269 120.185 33.6013C121.169 32.8137 122.252 32.0589 123.434 31.337C123.434 31.337 123.434 31.3042 123.434 31.2385C125.895 29.6634 128.652 28.482 131.408 27.6944C131.474 27.6944 131.507 27.6944 131.507 27.6944C132.557 27.3662 133.705 27.1037 134.952 26.9068C135.609 26.8412 136.298 26.8083 137.02 26.8083C139.678 26.8083 142.336 27.1037 144.896 27.4975C145.092 27.5959 145.289 27.7928 145.388 27.9897C145.486 28.1866 145.486 28.482 145.289 28.6789C139.875 34.7827 136.921 42.9539 136.921 51.6174C136.921 51.7487 136.921 51.88 136.921 52.0112C137.02 60.1825 139.776 68.0584 144.797 74.0638C144.896 74.1622 144.994 74.4576 144.896 74.6545C144.797 74.8513 144.699 75.0482 144.403 75.1467C144.141 75.2123 143.878 75.278 143.616 75.3436C141.548 75.9343 139.284 76.2296 137.02 76.2296C128.258 76.2296 120.382 71.7994 115.952 64.3173ZM135.543 52.0112C135.543 51.88 135.543 51.7487 135.543 51.6174C135.543 43.0524 138.299 34.9796 143.419 28.6789C141.319 28.4163 139.186 28.2851 137.02 28.2851C136.363 28.2851 135.74 28.2851 135.149 28.2851C133.968 28.482 132.852 28.7117 131.802 28.9742C131.802 29.0399 131.802 29.0727 131.802 29.0727C129.144 29.7618 126.486 30.9432 124.123 32.5184C123.04 33.2075 122.055 33.8967 121.169 34.6843C116.444 39.016 113.786 45.2183 113.786 51.6174C113.786 55.8507 114.967 59.9856 117.133 63.6282C121.366 70.7165 128.75 74.8514 137.02 74.8514C139.054 74.8514 141.056 74.5888 143.025 74.0638C138.299 67.9599 135.641 60.1825 135.543 52.0112Z" fill="#1A2A6C"/>
<path fill-rule="evenodd" clip-rule="evenodd" d="M166.456 68.452C164.684 65.0063 162.321 61.8559 159.367 59.3947C154.15 54.8661 147.455 52.4049 140.564 52.4049C139.776 52.4049 138.988 52.4377 138.201 52.5033C137.545 52.5033 136.921 52.5689 136.33 52.7002C136.133 52.7002 135.969 52.6346 135.838 52.5033C135.641 52.372 135.543 52.208 135.543 52.0111C135.543 51.8798 135.543 51.7485 135.543 51.6173C135.543 42.6584 138.595 34.1918 144.206 27.7927C144.403 27.5958 144.6 27.4973 144.895 27.4973C145.158 27.5629 145.388 27.6286 145.585 27.6942C157.005 29.8601 165.865 37.8344 168.917 48.5653C169.606 51.2235 170 53.98 170 56.835C170 60.8714 169.212 64.8094 167.735 68.452C167.637 68.7474 167.342 68.8458 167.145 68.8458C167.145 68.8458 167.112 68.8458 167.046 68.8458C166.849 68.8458 166.554 68.7474 166.456 68.452ZM136.921 51.2235C137.315 51.1578 137.709 51.0922 138.102 51.0266C138.89 50.9609 139.71 50.9281 140.564 50.9281C147.75 50.9281 154.839 53.5862 160.253 58.3118C163.01 60.6745 165.274 63.4311 166.948 66.483C168.129 63.4311 168.621 60.1823 168.621 56.835C168.621 54.1769 168.228 51.5188 167.539 48.9591C164.684 38.7205 156.217 31.1399 145.388 29.0725C145.256 29.0069 145.125 28.974 144.994 28.974C139.874 34.9794 137.019 42.8553 136.921 51.2235Z" fill="#1A2A6C"/>
<path fill-rule="evenodd" clip-rule="evenodd" d="M143.714 74.9497C138.496 68.649 135.641 60.5762 135.543 52.0112C135.543 51.6174 135.838 51.322 136.133 51.322C136.724 51.1908 137.38 51.0923 138.102 51.0267C138.89 50.961 139.71 50.9282 140.564 50.9282C147.75 50.9282 154.839 53.5863 160.253 58.3119C160.45 58.5088 160.549 58.8041 160.45 59.001C158.087 66.68 152.082 72.6854 144.403 75.1466C144.337 75.1466 144.272 75.1466 144.206 75.1466C144.009 75.1466 143.845 75.081 143.714 74.9497ZM140.564 52.405C139.776 52.405 138.988 52.4378 138.201 52.5034C137.741 52.5034 137.315 52.5362 136.921 52.6018C137.118 60.3793 139.776 67.8614 144.502 73.6699C151.295 71.3071 156.709 65.8924 159.072 59.001C153.854 54.7677 147.258 52.405 140.564 52.405Z" fill="#1A2A6C"/>
<defs>
<linearGradient id="paint0_linear_203_670" x1="45579.4" y1="11706.4" x2="45862.5" y2="7931.56" gradientUnits="userSpaceOnUse">
<stop stop-color="#459B3C"/>
<stop offset="1" stop-color="#47B749"/>
</linearGradient>
<linearGradient id="paint1_linear_203_670" x1="19381.2" y1="2885.5" x2="17475.4" y2="3026.44" gradientUnits="userSpaceOnUse">
<stop stop-color="#45B649"/>
<stop offset="1" stop-color="#DCE35B"/>
</linearGradient>
<linearGradient id="paint2_linear_203_670" x1="15803.7" y1="2599.43" x2="15792.2" y2="2449" gradientUnits="userSpaceOnUse">
<stop stop-color="white" stop-opacity="0.3"/>
<stop offset="1" stop-color="white" stop-opacity="0.1"/>
</linearGradient>
<linearGradient id="paint3_linear_203_670" x1="11540.2" y1="999.92" x2="10918.8" y2="1094.32" gradientUnits="userSpaceOnUse">
<stop stop-color="#45B649"/>
<stop offset="1" stop-color="#DCE35B"/>
</linearGradient>
<linearGradient id="paint4_linear_203_670" x1="29959.4" y1="8400.66" x2="27188.5" y2="4080.65" gradientUnits="userSpaceOnUse">
<stop offset="0.11" stop-color="#45B649"/>
<stop offset="1" stop-color="#E100FF"/>
</linearGradient>
<linearGradient id="paint5_linear_203_670" x1="39582.9" y1="10489.4" x2="39628.3" y2="6577.89" gradientUnits="userSpaceOnUse">
<stop stop-color="#45B649"/>
<stop offset="1" stop-color="#DCE35B"/>
</linearGradient>
<linearGradient id="paint6_linear_203_670" x1="34269.3" y1="8948.64" x2="34197" y2="5874.98" gradientUnits="userSpaceOnUse">
<stop stop-color="white" stop-opacity="0.3"/>
<stop offset="1" stop-color="white" stop-opacity="0.1"/>
</linearGradient>
<linearGradient id="paint7_linear_203_670" x1="29674.8" y1="8781.53" x2="29598.8" y2="5798.76" gradientUnits="userSpaceOnUse">
<stop stop-color="white" stop-opacity="0.3"/>
<stop offset="1" stop-color="white" stop-opacity="0.1"/>
</linearGradient>
<linearGradient id="paint8_linear_203_670" x1="24603.3" y1="6957.83" x2="22836.4" y2="5121.97" gradientUnits="userSpaceOnUse">
<stop stop-color="white" stop-opacity="0.3"/>
<stop offset="1" stop-color="white" stop-opacity="0.2"/>
</linearGradient>
<linearGradient id="paint9_linear_203_670" x1="15101.1" y1="2467.97" x2="15709" y2="6317.21" gradientUnits="userSpaceOnUse">
<stop stop-color="#FFFFFD"/>
<stop offset="1" stop-color="#FDC830"/>
</linearGradient>
<linearGradient id="paint10_linear_203_670" x1="16503.6" y1="3125.88" x2="17822.4" y2="4363.68" gradientUnits="userSpaceOnUse">
<stop stop-color="#F37335"/>
<stop offset="1" stop-color="#FDC830"/>
</linearGradient>
<linearGradient id="paint11_linear_203_670" x1="16184.4" y1="2170.04" x2="16230.9" y2="2840.83" gradientUnits="userSpaceOnUse">
<stop stop-color="white" stop-opacity="0.3"/>
<stop offset="1" stop-color="white" stop-opacity="0.2"/>
</linearGradient>
<linearGradient id="paint12_linear_203_670" x1="12949.5" y1="2778.73" x2="13240.8" y2="1906.99" gradientUnits="userSpaceOnUse">
<stop offset="0.14" stop-color="#F37335"/>
<stop offset="1" stop-color="#FDC830"/>
</linearGradient>
<linearGradient id="paint13_linear_203_670" x1="12845.6" y1="999.754" x2="12843.6" y2="896.571" gradientUnits="userSpaceOnUse">
<stop stop-color="white" stop-opacity="0.3"/>
<stop offset="1" stop-color="white" stop-opacity="0.2"/>
</linearGradient>
</defs>
</svg>
