<svg width="74" height="80" viewBox="0 0 74 80" fill="none" xmlns="http://www.w3.org/2000/svg">
<path d="M4.162 76.74V66.94H8.404C9.28133 66.94 10.0373 67.0847 10.672 67.374C11.3067 67.654 11.7967 68.06 12.142 68.592C12.4873 69.124 12.66 69.7587 12.66 70.496C12.66 71.224 12.4873 71.854 12.142 72.386C11.7967 72.918 11.3067 73.3287 10.672 73.618C10.0373 73.898 9.28133 74.038 8.404 74.038H5.422L6.43 73.016V76.74H4.162ZM6.43 73.268L5.422 72.19H8.278C8.978 72.19 9.50067 72.0407 9.846 71.742C10.1913 71.4433 10.364 71.028 10.364 70.496C10.364 69.9547 10.1913 69.5347 9.846 69.236C9.50067 68.9373 8.978 68.788 8.278 68.788H5.422L6.43 67.71V73.268ZM18.6768 76.74V75.27L18.5368 74.948V72.316C18.5368 71.8493 18.3922 71.4853 18.1028 71.224C17.8228 70.9627 17.3888 70.832 16.8008 70.832C16.3995 70.832 16.0028 70.8973 15.6108 71.028C15.2282 71.1493 14.9015 71.3173 14.6308 71.532L13.8468 70.006C14.2575 69.7167 14.7522 69.4927 15.3308 69.334C15.9095 69.1753 16.4975 69.096 17.0948 69.096C18.2428 69.096 19.1342 69.3667 19.7688 69.908C20.4035 70.4493 20.7208 71.294 20.7208 72.442V76.74H18.6768ZM16.3808 76.852C15.7928 76.852 15.2888 76.754 14.8688 76.558C14.4488 76.3527 14.1268 76.0773 13.9028 75.732C13.6788 75.3867 13.5668 74.9993 13.5668 74.57C13.5668 74.122 13.6742 73.73 13.8888 73.394C14.1128 73.058 14.4628 72.7967 14.9388 72.61C15.4148 72.414 16.0355 72.316 16.8008 72.316H18.8028V73.59H17.0388C16.5255 73.59 16.1708 73.674 15.9748 73.842C15.7882 74.01 15.6948 74.22 15.6948 74.472C15.6948 74.752 15.8022 74.976 16.0168 75.144C16.2408 75.3027 16.5442 75.382 16.9268 75.382C17.2908 75.382 17.6175 75.298 17.9068 75.13C18.1962 74.9527 18.4062 74.696 18.5368 74.36L18.8728 75.368C18.7142 75.8533 18.4248 76.222 18.0048 76.474C17.5848 76.726 17.0435 76.852 16.3808 76.852ZM22.6975 76.74V69.208H24.7835V71.336L24.4895 70.72C24.7135 70.188 25.0728 69.7867 25.5675 69.516C26.0621 69.236 26.6641 69.096 27.3735 69.096V71.112C27.2801 71.1027 27.1961 71.098 27.1215 71.098C27.0468 71.0887 26.9675 71.084 26.8835 71.084C26.2861 71.084 25.8008 71.2567 25.4275 71.602C25.0635 71.938 24.8815 72.4653 24.8815 73.184V76.74H22.6975ZM28.6857 76.74V69.208H30.7717V71.336L30.4777 70.72C30.7017 70.188 31.0611 69.7867 31.5557 69.516C32.0504 69.236 32.6524 69.096 33.3617 69.096V71.112C33.2684 71.1027 33.1844 71.098 33.1097 71.098C33.0351 71.0887 32.9557 71.084 32.8717 71.084C32.2744 71.084 31.7891 71.2567 31.4157 71.602C31.0517 71.938 30.8697 72.4653 30.8697 73.184V76.74H28.6857ZM38.1897 76.852C37.387 76.852 36.673 76.684 36.0477 76.348C35.4317 76.012 34.9417 75.5547 34.5777 74.976C34.223 74.388 34.0457 73.7207 34.0457 72.974C34.0457 72.218 34.223 71.5507 34.5777 70.972C34.9417 70.384 35.4317 69.9267 36.0477 69.6C36.673 69.264 37.387 69.096 38.1897 69.096C38.983 69.096 39.6923 69.264 40.3177 69.6C40.943 69.9267 41.433 70.3793 41.7877 70.958C42.1423 71.5367 42.3197 72.2087 42.3197 72.974C42.3197 73.7207 42.1423 74.388 41.7877 74.976C41.433 75.5547 40.943 76.012 40.3177 76.348C39.6923 76.684 38.983 76.852 38.1897 76.852ZM38.1897 75.06C38.5537 75.06 38.8803 74.976 39.1697 74.808C39.459 74.64 39.6877 74.402 39.8557 74.094C40.0237 73.7767 40.1077 73.4033 40.1077 72.974C40.1077 72.5353 40.0237 72.162 39.8557 71.854C39.6877 71.546 39.459 71.308 39.1697 71.14C38.8803 70.972 38.5537 70.888 38.1897 70.888C37.8257 70.888 37.499 70.972 37.2097 71.14C36.9203 71.308 36.687 71.546 36.5097 71.854C36.3417 72.162 36.2577 72.5353 36.2577 72.974C36.2577 73.4033 36.3417 73.7767 36.5097 74.094C36.687 74.402 36.9203 74.64 37.2097 74.808C37.499 74.976 37.8257 75.06 38.1897 75.06ZM46.8595 76.852C45.9728 76.852 45.2822 76.628 44.7875 76.18C44.2928 75.7227 44.0455 75.046 44.0455 74.15V67.542H46.2295V74.122C46.2295 74.4393 46.3135 74.6867 46.4815 74.864C46.6495 75.032 46.8782 75.116 47.1675 75.116C47.5128 75.116 47.8068 75.0227 48.0495 74.836L48.6375 76.376C48.4135 76.5347 48.1428 76.656 47.8255 76.74C47.5175 76.8147 47.1955 76.852 46.8595 76.852ZM42.8835 71.056V69.376H48.1055V71.056H42.8835Z" fill="white"/>
<path d="M50.0175 76.74V66.94H54.2595C55.1368 66.94 55.8928 67.0847 56.5275 67.374C57.1621 67.654 57.6521 68.06 57.9975 68.592C58.3428 69.124 58.5155 69.7587 58.5155 70.496C58.5155 71.224 58.3428 71.854 57.9975 72.386C57.6521 72.918 57.1621 73.3287 56.5275 73.618C55.8928 73.898 55.1368 74.038 54.2595 74.038H51.2775L52.2855 73.016V76.74H50.0175ZM52.2855 73.268L51.2775 72.19H54.1335C54.8335 72.19 55.3561 72.0407 55.7015 71.742C56.0468 71.4433 56.2195 71.028 56.2195 70.496C56.2195 69.9547 56.0468 69.5347 55.7015 69.236C55.3561 68.9373 54.8335 68.788 54.1335 68.788H51.2775L52.2855 67.71V73.268ZM64.5323 76.74V75.27L64.3923 74.948V72.316C64.3923 71.8493 64.2476 71.4853 63.9583 71.224C63.6783 70.9627 63.2443 70.832 62.6563 70.832C62.255 70.832 61.8583 70.8973 61.4663 71.028C61.0836 71.1493 60.757 71.3173 60.4863 71.532L59.7023 70.006C60.113 69.7167 60.6076 69.4927 61.1863 69.334C61.765 69.1753 62.353 69.096 62.9503 69.096C64.0983 69.096 64.9896 69.3667 65.6243 69.908C66.259 70.4493 66.5763 71.294 66.5763 72.442V76.74H64.5323ZM62.2363 76.852C61.6483 76.852 61.1443 76.754 60.7243 76.558C60.3043 76.3527 59.9823 76.0773 59.7583 75.732C59.5343 75.3867 59.4223 74.9993 59.4223 74.57C59.4223 74.122 59.5296 73.73 59.7443 73.394C59.9683 73.058 60.3183 72.7967 60.7943 72.61C61.2703 72.414 61.891 72.316 62.6563 72.316H64.6583V73.59H62.8943C62.381 73.59 62.0263 73.674 61.8303 73.842C61.6436 74.01 61.5503 74.22 61.5503 74.472C61.5503 74.752 61.6576 74.976 61.8723 75.144C62.0963 75.3027 62.3996 75.382 62.7823 75.382C63.1463 75.382 63.473 75.298 63.7623 75.13C64.0516 74.9527 64.2616 74.696 64.3923 74.36L64.7283 75.368C64.5696 75.8533 64.2803 76.222 63.8603 76.474C63.4403 76.726 62.899 76.852 62.2363 76.852ZM68.5529 76.74V66.352H70.7369V76.74H68.5529Z" fill="#FF6F2D"/>
<path d="M2.80029 58.8575L2.99248 58.7168" stroke="#231F20" stroke-width="3" stroke-miterlimit="10"/>
<path d="M14.5207 46.973C14.5527 47.0036 14.5848 47.0342 14.6168 47.0648C15.5136 47.6458 16.4585 48.1657 17.4514 48.6244C18.7325 49.2667 20.0618 49.8171 21.439 50.2759C21.5992 50.337 21.7593 50.3982 21.9195 50.4593C23.1046 50.8263 24.3057 51.1168 25.5228 51.3309C26.2594 51.4838 27.0121 51.5909 27.7808 51.652C28.9019 51.7744 30.0389 51.8355 31.192 51.8355C35.8522 51.8355 40.2242 50.8263 44.1638 49.0373C47.9593 47.2941 51.2743 44.817 53.9648 41.7895C55.8385 39.6793 57.424 37.3398 58.577 34.771C58.4329 27.2938 52.2352 21.2845 44.4521 20.9634C49.3526 21.2386 53.2441 25.0919 53.2441 29.8168C53.5805 33.7618 52.1391 37.5692 49.5448 40.5509C49.0003 41.2237 48.3917 41.8353 47.7191 42.3858C44.7404 44.9088 41.2812 46.6519 37.5338 47.6611C35.9323 48.1198 34.2988 48.4562 32.6333 48.6703C31.0318 48.8538 29.4143 48.9455 27.7808 48.9455C26.5317 48.9761 25.2826 48.9303 24.0334 48.8079C22.0636 48.6703 20.1418 48.3492 18.2681 47.9822C18.108 47.9517 17.9318 47.9058 17.7396 47.8446C17.2912 47.7529 16.8428 47.6458 16.3944 47.5235C15.8179 47.3706 15.2414 47.2024 14.6648 47.0189H14.6168C14.5848 47.0189 14.5527 47.0036 14.5207 46.973Z" fill="url(#paint0_linear_236_131)"/>
<path d="M0.348145 53.0742C0.668438 53.2271 0.988731 53.38 1.30902 53.5329C3.03861 54.221 4.91232 54.7256 6.83408 54.9091C7.89105 55.0314 8.98004 55.0773 10.1011 55.0467C13.4161 54.8632 16.539 53.8999 19.2294 52.3403C17.9483 52.0956 16.7472 51.6981 15.6261 51.1476C16.2347 51.1782 16.8432 51.1782 17.4518 51.1476C17.4518 51.1476 17.4678 51.1476 17.4998 51.1476C18.8451 51.1017 20.1903 50.7806 21.4395 50.276C20.3505 49.9396 19.3095 49.5268 18.3166 49.0374C18.0283 48.9151 17.7401 48.7775 17.4518 48.6246C16.4589 48.1659 15.514 47.646 14.6172 47.0649L13.32 48.3494C10.5815 51.1476 6.83407 52.8449 2.79838 53.0742C2.76635 53.0742 2.75034 53.0742 2.75034 53.0742C1.94961 53.1048 1.14888 53.1048 0.348145 53.0742Z" fill="url(#paint1_linear_236_131)"/>
<path d="M0.348145 53.0742C0.668438 53.2271 0.988731 53.38 1.30902 53.5329C2.49411 53.5941 3.67919 53.5941 4.86428 53.5329C6.33763 53.4718 7.81097 53.273 9.28431 52.9366C12.5993 52.1568 15.6261 50.8265 18.3166 49.0374C18.0283 48.9151 17.7401 48.7775 17.4518 48.6246C16.4589 48.1659 15.514 47.646 14.6172 47.0649L13.32 48.3494C10.5815 51.1476 6.83407 52.8449 2.79838 53.0742C2.76635 53.0742 2.75034 53.0742 2.75034 53.0742C1.94961 53.1048 1.14888 53.1048 0.348145 53.0742Z" fill="url(#paint2_linear_236_131)"/>
<path d="M15.6265 51.1477C16.7475 51.6982 17.9486 52.0957 19.2298 52.3404C19.6782 52.4321 20.1266 52.5086 20.575 52.5697C21.3757 52.6615 22.2085 52.6921 23.0733 52.6615C24.7068 52.5697 26.2922 52.2028 27.7816 51.6523C27.0129 51.5911 26.2602 51.4841 25.5235 51.3312C24.3064 51.1171 23.1053 50.8266 21.9202 50.4596C21.7601 50.3984 21.5999 50.3373 21.4398 50.2761C20.1906 50.7807 18.8454 51.1018 17.5002 51.1477C17.4681 51.1477 17.4521 51.1477 17.4521 51.1477C16.8436 51.1783 16.235 51.1783 15.6265 51.1477Z" fill="url(#paint3_linear_236_131)"/>
<path d="M36.0459 21.2391C36.0459 21.8508 36.0619 22.4624 36.0939 23.074C36.158 23.6551 36.2381 24.2208 36.3342 24.7713C37.9677 22.5236 40.6581 21.0556 43.7329 20.9639C43.829 20.9639 43.9091 20.9639 43.9732 20.9639C44.0692 20.9639 44.1653 20.9639 44.2614 20.9639C44.3255 20.9639 44.3895 20.9639 44.4536 20.9639C52.2367 21.285 58.4344 27.2943 58.5785 34.7715C60.164 31.2852 61.0768 27.386 61.0768 23.3493C61.0768 23.0129 61.0768 22.6612 61.0768 22.2942C60.0519 22.5694 58.9949 22.7071 57.9059 22.7071C53.63 22.7071 49.9306 20.5511 47.9128 17.34C46.8558 15.6427 46.2312 13.6702 46.2312 11.5601C46.2312 8.34899 47.6725 5.45903 49.9306 3.44064C50.411 3.04308 50.9075 2.69139 51.42 2.38557H51.468C52.6211 1.65161 53.9183 1.10115 55.2635 0.734166C55.2635 0.734166 55.2795 0.734166 55.3115 0.734166C55.824 0.581258 56.3685 0.458932 56.945 0.367188C54.687 0.458932 52.525 0.871785 50.5071 1.55987C42.0514 4.44983 36.0459 12.1564 36.0459 21.2391Z" fill="url(#paint4_linear_236_131)"/>
<path d="M14.4727 46.973C15.5617 47.3094 16.6506 47.6 17.7396 47.8446C24.0334 49.2667 31.1439 49.4501 37.5338 47.6611C41.2812 46.6519 44.7404 44.9088 47.7191 42.3858C48.3917 41.8353 49.0003 41.2237 49.5448 40.5509C52.1391 37.5692 53.5804 33.7618 53.2441 29.8168C53.2441 25.1378 49.4487 21.3304 44.6923 20.9634C44.5962 20.9634 44.5162 20.9634 44.4521 20.9634C44.388 20.9634 44.324 20.9634 44.2599 20.9634C44.1638 20.9634 44.0677 20.9634 43.9717 20.9634C43.9076 20.9634 43.8275 20.9634 43.7314 20.9634C40.6566 21.0551 37.9662 22.523 36.3327 24.7708L29.6065 31.6517L14.7129 46.7437L14.4727 46.973Z" fill="url(#paint5_linear_236_131)"/>
<path d="M14.7134 46.7437C20.1904 47.34 25.9076 47.0648 31.1925 45.7345C35.2762 44.7253 39.1197 42.9821 42.3867 40.4592C43.1234 39.9087 43.812 39.2971 44.4526 38.6243C47.2392 35.6426 48.8246 31.8351 48.4883 27.8901C48.4883 25.0919 46.9989 22.6148 44.6928 20.9634C44.5967 20.9634 44.5167 20.9634 44.4526 20.9634C44.3885 20.9634 44.3245 20.9634 44.2604 20.9634C44.1643 20.9634 44.0683 20.9634 43.9722 20.9634C43.9081 20.9634 43.828 20.9634 43.7319 20.9634C43.6679 20.9634 43.6198 20.9634 43.5878 20.9634C40.561 21.101 37.9186 22.5689 36.3332 24.7708L29.607 31.6517L14.7614 46.6978L14.7134 46.7437Z" fill="url(#paint6_linear_236_131)"/>
<path d="M14.7627 46.6983C20.7201 45.8267 26.8217 43.9459 32.0105 41.0101C35.6138 38.9459 38.7366 36.3311 41.0908 33.2118C41.6353 32.4778 42.0997 31.7286 42.4841 30.9641C44.1656 27.753 44.6461 24.2208 43.5891 20.9639C41.9075 21.0556 40.3221 21.5143 39.0249 22.34C37.9679 22.9823 37.0551 23.808 36.3344 24.7713L29.6083 31.6521L15.8197 45.5974L14.7627 46.6983Z" fill="url(#paint7_linear_236_131)"/>
<path d="M15.8184 45.5969C19.9021 44.3125 23.8898 42.5235 27.397 40.2757C31.0003 37.9821 34.0751 35.1839 36.3331 31.8352C36.8776 31.1012 37.3261 30.3214 37.6784 29.4957C38.7834 27.1562 39.2638 24.6791 39.0236 22.3396C37.9666 22.9818 37.0538 23.8075 36.3331 24.7708L29.607 31.6517L15.8184 45.5969Z" fill="url(#paint8_linear_236_131)"/>
<path d="M49.9303 3.44064C50.4108 3.04308 50.9072 2.69139 51.4197 2.38557H51.4677C52.6208 1.65161 53.918 1.10115 55.2632 0.734166C55.2632 0.734166 55.2792 0.734166 55.3113 0.734166C55.8237 0.581258 56.3682 0.458932 56.9448 0.367188C57.2651 0.367188 57.5853 0.367188 57.9056 0.367188C59.1868 0.367188 60.452 0.458933 61.7011 0.642423C59.1067 3.44064 57.5213 7.33979 57.5213 11.5601C57.5213 11.6212 57.5213 11.6824 57.5213 11.7435C57.5693 15.7803 59.0587 19.4501 61.4128 22.2025C61.2847 22.233 61.1726 22.2636 61.0765 22.2942C60.0516 22.5694 58.9946 22.7071 57.9056 22.7071C53.6297 22.7071 49.9303 20.5511 47.9125 17.34C46.8555 15.6427 46.231 13.6702 46.231 11.5601C46.231 8.34899 47.6723 5.45903 49.9303 3.44064Z" fill="url(#paint9_linear_236_131)"/>
<path d="M57.521 11.56C57.521 11.6211 57.521 11.6823 57.521 11.7435C57.8413 11.6823 58.1456 11.6364 58.4338 11.6058C58.8182 11.5753 59.2185 11.56 59.6349 11.56C63.2382 11.56 66.5052 12.8444 69.0516 14.9087C70.4929 16.1013 71.6459 17.5234 72.5107 19.1748C72.5428 19.2054 72.5588 19.236 72.5588 19.2665C73.2794 17.661 73.6638 15.872 73.6638 13.9912C73.6638 12.7068 73.4716 11.4224 73.1353 10.2297C71.694 5.32132 67.322 1.6974 62.0371 0.734077C61.909 0.703496 61.7969 0.672916 61.7008 0.642334C60.5958 1.83502 59.683 3.21119 59.0103 4.77085C58.0495 6.83511 57.521 9.12873 57.521 11.56Z" fill="url(#paint10_linear_236_131)"/>
<path d="M57.521 11.5599C57.521 11.621 57.521 11.6822 57.521 11.7434C57.8413 11.6822 58.1456 11.6363 58.4338 11.6057C58.8182 11.5752 59.2185 11.5599 59.6349 11.5599C63.2382 11.5599 66.5052 12.8443 69.0516 14.9086C70.4929 16.1012 71.6459 17.5233 72.5107 19.1747C72.5428 18.8383 72.5588 18.5019 72.5588 18.1655C72.5588 16.8352 72.3185 15.5508 71.8861 14.3581C70.1565 9.49561 65.16 5.91756 59.0103 4.77075C58.0495 6.83501 57.521 9.12863 57.521 11.5599Z" fill="url(#paint11_linear_236_131)"/>
<path d="M57.521 11.7435C57.553 12.8751 57.6811 13.976 57.9053 15.0464C58.4338 17.7528 59.683 20.2299 61.4125 22.2025C65.0639 21.1015 67.8985 18.395 69.0516 14.9087C66.5052 12.8445 63.2382 11.5601 59.6349 11.5601C59.2185 11.5601 58.8182 11.5754 58.4338 11.6059C58.1456 11.6365 57.8413 11.6824 57.521 11.7435Z" fill="url(#paint12_linear_236_131)"/>
<path d="M57.521 11.7435C57.553 12.8751 57.6811 13.976 57.9053 15.0464C61.4606 16.4225 65.4963 16.3767 69.0516 14.9087C66.5052 12.8445 63.2382 11.5601 59.6349 11.5601C59.2185 11.5601 58.8182 11.5754 58.4338 11.6059C58.1456 11.6365 57.8413 11.6824 57.521 11.7435Z" fill="url(#paint13_linear_236_131)"/>
<path d="M51.2758 8.0272C51.0836 8.71528 51.4679 9.40337 52.1886 9.63273C52.9573 9.81622 53.678 9.40337 53.9182 8.71528C53.9823 8.47063 53.9823 8.22598 53.9182 7.98132C53.7741 8.25656 53.4858 8.39417 53.1975 8.30243C52.9093 8.25656 52.7171 7.93545 52.8132 7.66022C52.8612 7.43085 53.0534 7.24737 53.2936 7.24737C53.1975 7.1862 53.0854 7.14033 52.9573 7.10975C52.2367 6.92626 51.468 7.29324 51.2758 8.0272Z" fill="#1A2A6C"/>
<path fill-rule="evenodd" clip-rule="evenodd" d="M27.7331 51.9737C26.9964 51.9125 26.2437 51.8055 25.475 51.6526C24.2259 51.4232 23.0248 51.148 21.8237 50.7351C21.6635 50.7045 21.4874 50.6587 21.2952 50.5975C19.9019 50.1388 18.5567 49.5883 17.2595 48.9461C16.2986 48.4415 15.3377 47.891 14.4249 47.2947L14.3288 47.2488C14.1847 47.1571 14.0886 46.9736 14.1847 46.836C14.2327 46.6525 14.4249 46.6066 14.6171 46.6525C14.6491 46.6831 14.6811 46.6984 14.7132 46.6984C14.7132 46.6984 14.7292 46.6984 14.7612 46.6984C15.3377 46.8818 15.9143 47.05 16.4908 47.2029C16.9392 47.3253 17.3876 47.4323 17.836 47.5241C17.9962 47.5852 18.1723 47.6311 18.3645 47.6617C20.2382 48.0745 22.16 48.3498 24.0817 48.4874C25.3309 48.5791 26.58 48.6709 27.7811 48.625C29.4146 48.625 31.0481 48.5332 32.6336 48.3498C34.2671 48.1204 35.9006 47.7993 37.438 47.3406C41.3295 46.2855 44.6926 44.5423 47.4791 42.157C48.1197 41.6065 48.7283 40.9949 49.3048 40.3221C51.9473 37.2945 53.1964 33.5788 52.9081 29.8632C52.9081 29.8326 52.9081 29.8173 52.9081 29.8173C52.9081 25.2759 49.2087 21.5144 44.4524 21.285C44.2602 21.285 44.1161 21.1474 44.1161 20.9639C44.1161 20.7804 44.3083 20.6428 44.5004 20.6428C52.4277 20.9639 58.7695 27.1567 58.9136 34.7715C58.9136 34.8021 58.9136 34.848 58.9136 34.9091C57.7125 37.478 56.1271 39.8634 54.2534 41.9735C51.4668 45.0928 48.1518 47.5699 44.3083 49.3131C40.2245 51.2397 35.8045 52.1572 31.1922 52.1572C30.0392 52.1572 28.8861 52.1113 27.7331 51.9737ZM44.02 48.7626C47.7674 47.0195 51.0344 44.6341 53.7249 41.5606C55.5505 39.4964 57.088 37.2028 58.241 34.7257C58.0969 29.2668 54.6858 24.6337 49.7853 22.5236C52.0914 24.175 53.5807 26.8356 53.5807 29.8173C53.917 33.6706 52.5718 37.5697 49.8333 40.7349C49.2568 41.4383 48.6162 42.0805 47.9116 42.6616C45.077 45.0928 41.6178 46.8818 37.6301 47.9828C36.0447 48.4415 34.4112 48.7626 32.6816 48.992C31.0962 49.1755 29.4627 49.2672 27.7811 49.3131C26.532 49.3131 25.2828 49.2672 24.0337 49.1296C22.0639 48.992 20.1421 48.7167 18.2204 48.3039C18.0282 48.2427 17.836 48.1969 17.6438 48.1663C17.3876 48.1051 17.1314 48.0439 16.8751 47.9828C17.0993 48.1051 17.3396 48.2274 17.5958 48.3498C18.8449 48.992 20.1902 49.5424 21.5354 49.9553C21.6955 50.0165 21.8717 50.0776 22.0639 50.1388C23.1689 50.5058 24.37 50.781 25.6191 51.0104C26.3558 51.1633 27.0925 51.2703 27.8292 51.3315C28.9342 51.4691 30.0872 51.515 31.1922 51.515C35.7084 51.515 39.9843 50.5975 43.9719 48.7626C44.004 48.7626 44.02 48.7626 44.02 48.7626Z" fill="#1A2A6C"/>
<path fill-rule="evenodd" clip-rule="evenodd" d="M6.7867 55.23C4.48059 55.0007 2.27056 54.3585 0.204671 53.3493C0.060539 53.3034 -0.0355461 53.1658 0.0124979 52.9823C0.0605419 52.8447 0.20468 52.7529 0.348812 52.7529C1.11752 52.7988 1.88622 52.7988 2.70296 52.7529C2.73499 52.7529 2.76701 52.7529 2.79904 52.7529C6.69061 52.5236 10.342 50.918 13.0805 48.1198L14.3776 46.8354C14.4737 46.6978 14.6659 46.6978 14.81 46.7895C15.7069 47.34 16.6357 47.8599 17.5966 48.3492C18.8457 48.9914 20.191 49.5419 21.5362 49.9547C21.6803 50.0006 21.7764 50.1382 21.7764 50.2758C21.7764 50.4134 21.6803 50.5052 21.5362 50.5969C20.239 51.1015 18.8938 51.4226 17.5005 51.4685C17.4685 51.4685 17.4525 51.4685 17.4525 51.4685C17.3884 51.4685 17.3243 51.4685 17.2603 51.4685C17.9329 51.7132 18.6055 51.8967 19.2781 52.019C19.4223 52.0649 19.5184 52.1566 19.5664 52.2942C19.5664 52.4318 19.5183 52.5694 19.3742 52.6153C16.5877 54.2667 13.4168 55.1842 10.1017 55.3677C9.78144 55.3677 9.44513 55.3677 9.09281 55.3677C8.3241 55.3677 7.55541 55.3218 6.7867 55.23ZM15.4827 51.4685C15.3385 51.3768 15.2424 51.2392 15.2905 51.0557C15.3385 50.918 15.4827 50.8263 15.6268 50.8263C16.2353 50.8569 16.8279 50.8569 17.4044 50.8263L17.4525 51.1474V50.8263C18.4774 50.7651 19.4703 50.5816 20.4312 50.2758C19.3422 49.8783 18.2852 49.4348 17.2603 48.9455C16.3635 48.4868 15.4987 47.9975 14.6659 47.4776L13.5609 48.5785C10.7263 51.4685 6.88278 53.1658 2.79904 53.3952C2.79904 53.3952 2.78304 53.3952 2.75101 53.3952C2.49478 53.3952 2.23854 53.4104 1.9823 53.441C3.55174 54.0221 5.18523 54.4043 6.88278 54.5878C7.93975 54.7255 8.99672 54.7713 10.1017 54.7255C12.9844 54.542 15.7709 53.808 18.3173 52.4777C17.3243 52.233 16.3795 51.8967 15.4827 51.4685Z" fill="#1A2A6C"/>
<path fill-rule="evenodd" clip-rule="evenodd" d="M20.5281 52.8909C20.0477 52.8298 19.5832 52.7533 19.1348 52.6616C17.8857 52.4322 16.6365 52.0193 15.4835 51.4689C15.3394 51.3771 15.2433 51.2395 15.2913 51.056C15.3393 50.9184 15.4835 50.8267 15.6276 50.8267C16.2362 50.8572 16.8287 50.8572 17.4053 50.8267L17.4533 51.1478V50.8267C18.7985 50.7808 20.0477 50.4597 21.2968 50.001C21.3609 49.9704 21.4409 49.9551 21.537 49.9551C21.6972 50.0162 21.8733 50.0774 22.0655 50.1386C23.1705 50.5056 24.3716 50.7808 25.6208 51.0101C26.3574 51.1631 27.0941 51.2701 27.8308 51.3313C27.9749 51.3771 28.1191 51.4689 28.1191 51.6065C28.1191 51.7441 28.071 51.9276 27.9269 51.9735C26.3895 52.5698 24.756 52.8909 23.0744 52.9827C22.8182 52.9827 22.5459 52.9827 22.2577 52.9827C21.6812 52.9827 21.1046 52.9521 20.5281 52.8909ZM25.4766 51.6524C24.2275 51.423 23.0264 51.1478 21.8253 50.7349C21.6972 50.7043 21.5691 50.6737 21.4409 50.6432C20.1918 51.1019 18.8466 51.423 17.5013 51.4689C17.4693 51.4689 17.4533 51.4689 17.4533 51.4689C17.3892 51.4689 17.3252 51.4689 17.2611 51.4689C17.9337 51.7135 18.6063 51.897 19.279 52.0193C19.6953 52.1111 20.1438 52.1875 20.6242 52.2487C21.4249 52.3404 22.2257 52.3557 23.0264 52.2946C24.1474 52.264 25.2364 52.0958 26.2934 51.79C26.0372 51.7594 25.7649 51.7135 25.4766 51.6524Z" fill="#1A2A6C"/>
<path fill-rule="evenodd" clip-rule="evenodd" d="M58.5296 35.0927C58.3374 35.0468 58.2413 34.9092 58.2413 34.7716C58.2413 33.6706 58.0491 32.5238 57.7609 31.4687C57.6968 31.2547 57.6327 31.0559 57.5687 30.8724C57.5206 30.643 57.4246 30.4596 57.3285 30.2302C57.2324 29.9244 57.1043 29.6339 56.9441 29.3586C56.6238 28.6552 56.2555 27.9977 55.8391 27.3861C55.3267 26.6827 54.7661 26.0252 54.1576 25.4136C54.0615 25.3524 53.9814 25.276 53.9174 25.1842C51.371 22.7989 48.0079 21.4227 44.5007 21.2851C44.4687 21.2851 44.4527 21.2851 44.4527 21.2851H44.2605C44.1644 21.2851 44.0683 21.2851 43.9722 21.2851C43.9082 21.2851 43.8281 21.2851 43.732 21.2851C40.8974 21.3768 38.255 22.753 36.6215 24.9549C36.5254 25.0925 36.3813 25.1384 36.2852 25.0925C36.1411 25.0925 36.045 24.9549 35.9969 24.8631C35.9009 24.2515 35.8208 23.6704 35.7567 23.12C35.6927 22.4778 35.6606 21.8508 35.6606 21.2392C35.6606 12.2941 41.57 4.26641 50.3621 1.2847C52.476 0.550739 54.6861 0.137887 56.8961 0.0461426C57.0883 0.0461426 57.2324 0.183761 57.2804 0.321378C57.2804 0.504868 57.1843 0.642485 56.9922 0.688357C56.4156 0.780102 55.8711 0.887138 55.3587 1.00946C55.3587 1.04005 55.3587 1.05534 55.3587 1.05534C54.0615 1.37644 52.7643 1.92691 51.6112 2.66087C51.0828 2.98198 50.6023 3.30308 50.1699 3.67006C47.8638 5.68845 46.5666 8.57841 46.5666 11.5601C46.5666 13.5326 47.1431 15.4593 48.2001 17.1566C50.266 20.4594 53.8693 22.386 57.905 22.386C58.962 22.386 59.9869 22.2637 60.9798 22.019C61.0759 21.9884 61.172 22.0037 61.2681 22.0649C61.3161 22.1108 61.3642 22.2025 61.4122 22.2943C61.4122 22.6307 61.4122 22.9824 61.4122 23.3493C61.4122 27.3402 60.5474 31.2394 58.8659 34.9092C58.8178 35.0009 58.7218 35.0927 58.5776 35.0927C58.5456 35.0927 58.5296 35.0927 58.5296 35.0927ZM57.905 23.0282C53.6291 23.0282 49.7856 20.964 47.6236 17.4777C46.4705 15.6886 45.894 13.6702 45.894 11.5601C45.894 8.39492 47.2873 5.36734 49.6895 3.16547C50.1699 2.79849 50.6984 2.4468 51.2749 2.1104C51.2749 2.1104 51.2749 2.09511 51.2749 2.06453C51.7874 1.75871 52.3319 1.48348 52.9084 1.23883C52.1397 1.42232 51.371 1.63639 50.6023 1.88104C42.0985 4.81687 36.3813 12.5693 36.3813 21.2392C36.3813 21.8508 36.3973 22.4625 36.4293 23.0741C36.4614 23.3493 36.5094 23.6551 36.5735 23.9915C38.3031 21.9273 40.9455 20.6887 43.732 20.6429C43.8922 20.6429 44.0683 20.6429 44.2605 20.6429H44.4527C44.4847 20.6429 44.5007 20.6429 44.5007 20.6429C48.2001 20.7805 51.7073 22.2484 54.3978 24.7255C54.4619 24.7867 54.5419 24.8631 54.638 24.9549C55.2786 25.5971 55.8551 26.2852 56.3676 27.0191C56.848 27.6613 57.2484 28.3494 57.5687 29.0834C57.7288 29.3892 57.873 29.695 58.0011 30.0008C58.0972 30.2761 58.1452 30.4596 58.2413 30.643C58.3054 30.8571 58.3694 31.0865 58.4335 31.3311C58.5936 31.9733 58.7218 32.6461 58.8179 33.3495C60.067 30.1384 60.7396 26.7898 60.7396 23.3493C60.7396 23.1353 60.7396 22.9365 60.7396 22.753C59.8108 22.9365 58.8659 23.0282 57.905 23.0282Z" fill="#1A2A6C"/>
<path fill-rule="evenodd" clip-rule="evenodd" d="M17.6436 48.1663C16.5386 47.9369 15.4336 47.6158 14.3766 47.2947C14.2805 47.2488 14.1845 47.1571 14.1845 47.0653C14.1364 46.9277 14.1845 46.836 14.2325 46.7442L36.0925 24.5878C37.8221 22.2025 40.6567 20.7346 43.7315 20.6428C43.8916 20.6428 44.0678 20.6428 44.26 20.6428H44.5002C49.5929 20.9181 53.5805 24.909 53.5805 29.8173C53.9168 33.6706 52.5716 37.5697 49.8331 40.7349C49.2566 41.4383 48.616 42.0805 47.9113 42.6616C45.0767 45.0928 41.6176 46.8818 37.6299 47.9828C34.507 48.8544 31.0959 49.3131 27.5887 49.3131C24.3217 49.3131 20.9587 48.9002 17.6436 48.1663ZM43.7315 21.285C40.8969 21.3768 38.2545 22.753 36.621 24.9548C36.621 24.9854 36.605 25.0007 36.573 25.0007L15.0973 46.836C15.9941 47.0806 16.8909 47.31 17.7877 47.5241C24.562 49.0837 31.5283 48.992 37.4377 47.3406C41.3293 46.2855 44.6924 44.5423 47.4789 42.157C48.1195 41.6065 48.7281 40.9949 49.3046 40.3221C51.947 37.2945 53.1962 33.5788 52.9079 29.8632C52.9079 29.8326 52.9079 29.8173 52.9079 29.8173C52.9079 25.2759 49.2085 21.5144 44.4522 21.285H44.26C44.1639 21.285 44.0678 21.285 43.9717 21.285C43.9077 21.285 43.8276 21.285 43.7315 21.285Z" fill="#1A2A6C"/>
<path fill-rule="evenodd" clip-rule="evenodd" d="M47.6246 17.4774C46.4716 15.6884 45.895 13.67 45.895 11.5598C45.895 8.39465 47.2883 5.36707 49.6905 3.1652C50.1709 2.79822 50.6994 2.44653 51.276 2.11013C51.276 2.11013 51.276 2.09484 51.276 2.06426C52.4771 1.3303 53.8223 0.779832 55.1675 0.412852C55.1995 0.412852 55.2156 0.412852 55.2156 0.412852C55.728 0.259944 56.2885 0.137617 56.8971 0.0458717C57.2174 0.0152901 57.5537 0 57.906 0C59.2032 0 60.5004 0.137618 61.7495 0.321107C61.8456 0.36698 61.9417 0.458724 61.9898 0.550469C62.0378 0.642214 62.0378 0.779832 61.9417 0.871577C59.2993 3.71567 57.858 7.52307 57.858 11.5598C57.858 11.621 57.858 11.6822 57.858 11.7433C57.906 15.5507 59.2513 19.2205 61.7015 22.0188C61.7495 22.0646 61.7976 22.2022 61.7495 22.294C61.7015 22.3857 61.6534 22.4775 61.5093 22.5234C61.3812 22.5539 61.2531 22.5845 61.125 22.6151C60.116 22.8903 59.011 23.028 57.906 23.028C53.6301 23.028 49.7866 20.9637 47.6246 17.4774ZM57.1854 11.7433C57.1854 11.6822 57.1854 11.621 57.1854 11.5598C57.1854 7.56895 58.5306 3.80741 61.0289 0.871577C60.0039 0.74925 58.963 0.688086 57.906 0.688086C57.5857 0.688086 57.2814 0.688086 56.9932 0.688086C56.4166 0.779831 55.8722 0.886867 55.3597 1.00919C55.3597 1.03978 55.3597 1.05507 55.3597 1.05507C54.0625 1.37617 52.7653 1.92664 51.6123 2.6606C51.0838 2.98171 50.6033 3.30281 50.1709 3.66979C47.8648 5.68818 46.5676 8.57814 46.5676 11.5598C46.5676 13.5324 47.1442 15.459 48.2011 17.1563C50.267 20.4591 53.8703 22.3857 57.906 22.3857C58.8989 22.3857 59.8758 22.2634 60.8367 22.0188C58.5306 19.1747 57.2334 15.5507 57.1854 11.7433Z" fill="#1A2A6C"/>
<path fill-rule="evenodd" clip-rule="evenodd" d="M72.2704 19.404C71.4056 17.7984 70.2525 16.3305 68.8112 15.1837C66.2649 13.0736 62.9979 11.9268 59.6348 11.9268C59.2505 11.9268 58.8661 11.9421 58.4818 11.9726C58.1615 11.9726 57.8572 12.0032 57.5689 12.0644C57.4728 12.0644 57.3928 12.0338 57.3287 11.9726C57.2326 11.9115 57.1846 11.835 57.1846 11.7433C57.1846 11.6821 57.1846 11.6209 57.1846 11.5598C57.1846 7.38539 58.6739 3.44037 61.4124 0.458662C61.5085 0.366917 61.6046 0.321045 61.7487 0.321045C61.8769 0.351627 61.989 0.382208 62.0851 0.41279C67.6582 1.42198 71.9821 5.13765 73.4715 10.1377C73.8078 11.3763 74 12.6607 74 13.991C74 15.8718 73.6156 17.7067 72.895 19.404C72.8469 19.5416 72.7028 19.5875 72.6067 19.5875C72.6067 19.5875 72.5907 19.5875 72.5586 19.5875C72.4626 19.5875 72.3184 19.5416 72.2704 19.404ZM57.8572 11.3763C58.0494 11.3457 58.2415 11.3151 58.4337 11.2845C58.8181 11.254 59.2184 11.2387 59.6348 11.2387C63.142 11.2387 66.6012 12.4772 69.2436 14.6791C70.5888 15.78 71.6939 17.0645 72.5106 18.4865C73.0871 17.0645 73.3273 15.5507 73.3273 13.991C73.3273 12.7525 73.1352 11.5139 72.7989 10.3212C71.4056 5.5505 67.2738 2.01832 61.989 1.055C61.9249 1.02442 61.8608 1.00913 61.7968 1.00913C59.2985 3.80735 57.9052 7.47714 57.8572 11.3763Z" fill="#1A2A6C"/>
<path fill-rule="evenodd" clip-rule="evenodd" d="M61.1722 22.4319C58.6259 19.496 57.2326 15.7345 57.1846 11.7436C57.1846 11.5601 57.3287 11.4225 57.4728 11.4225C57.7611 11.3613 58.0814 11.3155 58.4337 11.2849C58.8181 11.2543 59.2184 11.239 59.6348 11.239C63.142 11.239 66.6012 12.4776 69.2436 14.6794C69.3397 14.7712 69.3877 14.9088 69.3397 15.0005C68.1866 18.5786 65.256 21.3768 61.5085 22.5236C61.4765 22.5236 61.4445 22.5236 61.4124 22.5236C61.3163 22.5236 61.2363 22.493 61.1722 22.4319ZM59.6348 11.9271C59.2504 11.9271 58.8661 11.9424 58.4818 11.973C58.2576 11.973 58.0494 11.9883 57.8572 12.0188C57.9533 15.6428 59.2504 19.1291 61.5566 21.8355C64.8716 20.7346 67.514 18.2116 68.6671 15.0005C66.1208 13.028 62.9018 11.9271 59.6348 11.9271Z" fill="#1A2A6C"/>
<defs>
<linearGradient id="paint0_linear_236_131" x1="22234.3" y1="5442.11" x2="22360.3" y2="3682.37" gradientUnits="userSpaceOnUse">
<stop stop-color="#459B3C"/>
<stop offset="1" stop-color="#47B749"/>
</linearGradient>
<linearGradient id="paint1_linear_236_131" x1="9449.25" y1="1332.01" x2="8519.68" y2="1404.01" gradientUnits="userSpaceOnUse">
<stop stop-color="#45B649"/>
<stop offset="1" stop-color="#DCE35B"/>
</linearGradient>
<linearGradient id="paint2_linear_236_131" x1="7703.42" y1="1198.72" x2="7698.29" y2="1128.59" gradientUnits="userSpaceOnUse">
<stop stop-color="white" stop-opacity="0.3"/>
<stop offset="1" stop-color="white" stop-opacity="0.1"/>
</linearGradient>
<linearGradient id="paint3_linear_236_131" x1="5622.78" y1="453.423" x2="5320.18" y2="501.567" gradientUnits="userSpaceOnUse">
<stop stop-color="#45B649"/>
<stop offset="1" stop-color="#DCE35B"/>
</linearGradient>
<linearGradient id="paint4_linear_236_131" x1="14611.5" y1="3901.82" x2="13346.2" y2="1835.68" gradientUnits="userSpaceOnUse">
<stop offset="0.11" stop-color="#45B649"/>
<stop offset="1" stop-color="#E100FF"/>
</linearGradient>
<linearGradient id="paint5_linear_236_131" x1="19307.9" y1="4875.06" x2="19328.1" y2="3052.47" gradientUnits="userSpaceOnUse">
<stop stop-color="#45B649"/>
<stop offset="1" stop-color="#DCE35B"/>
</linearGradient>
<linearGradient id="paint6_linear_236_131" x1="16714.8" y1="4157.15" x2="16682.6" y2="2724.9" gradientUnits="userSpaceOnUse">
<stop stop-color="white" stop-opacity="0.3"/>
<stop offset="1" stop-color="white" stop-opacity="0.1"/>
</linearGradient>
<linearGradient id="paint7_linear_236_131" x1="14472.6" y1="4079.28" x2="14438.8" y2="2689.37" gradientUnits="userSpaceOnUse">
<stop stop-color="white" stop-opacity="0.3"/>
<stop offset="1" stop-color="white" stop-opacity="0.1"/>
</linearGradient>
<linearGradient id="paint8_linear_236_131" x1="11997.7" y1="3229.52" x2="11176.7" y2="2336.15" gradientUnits="userSpaceOnUse">
<stop stop-color="white" stop-opacity="0.3"/>
<stop offset="1" stop-color="white" stop-opacity="0.2"/>
</linearGradient>
<linearGradient id="paint9_linear_236_131" x1="7360.53" y1="1137.47" x2="7631.56" y2="2934.89" gradientUnits="userSpaceOnUse">
<stop stop-color="#FFFFFD"/>
<stop offset="1" stop-color="#FDC830"/>
</linearGradient>
<linearGradient id="paint10_linear_236_131" x1="8044.96" y1="1444.02" x2="8660.59" y2="2049.2" gradientUnits="userSpaceOnUse">
<stop stop-color="#F37335"/>
<stop offset="1" stop-color="#FDC830"/>
</linearGradient>
<linearGradient id="paint11_linear_236_131" x1="7889.19" y1="998.643" x2="7909.89" y2="1311.33" gradientUnits="userSpaceOnUse">
<stop stop-color="white" stop-opacity="0.3"/>
<stop offset="1" stop-color="white" stop-opacity="0.2"/>
</linearGradient>
<linearGradient id="paint12_linear_236_131" x1="6310.54" y1="1282.26" x2="6441.28" y2="872.437" gradientUnits="userSpaceOnUse">
<stop offset="0.14" stop-color="#F37335"/>
<stop offset="1" stop-color="#FDC830"/>
</linearGradient>
<linearGradient id="paint13_linear_236_131" x1="6259.81" y1="453.346" x2="6258.93" y2="405.266" gradientUnits="userSpaceOnUse">
<stop stop-color="white" stop-opacity="0.3"/>
<stop offset="1" stop-color="white" stop-opacity="0.2"/>
</linearGradient>
</defs>
</svg>
