<svg width="34" height="24" viewBox="0 0 34 24" fill="none" xmlns="http://www.w3.org/2000/svg">
<path fill-rule="evenodd" clip-rule="evenodd" d="M30.0571 1.28247C31.4763 1.66372 32.5989 2.78633 32.9801 4.20545C33.6791 6.78954 33.7003 12.1483 33.7003 12.1483C33.7003 12.1483 33.7003 17.5283 33.0013 20.0912C32.62 21.5104 31.4975 22.633 30.0783 23.0142C27.5154 23.7132 17.2002 23.7132 17.2002 23.7132C17.2002 23.7132 6.88506 23.7132 4.32216 23.0142C2.90302 22.633 1.78043 21.5104 1.39917 20.0912C0.700195 17.5072 0.700195 12.1483 0.700195 12.1483C0.700195 12.1483 0.700195 6.78954 1.37799 4.22664C1.75925 2.80751 2.88184 1.68491 4.30098 1.30366C6.86388 0.604672 17.1791 0.583496 17.1791 0.583496C17.1791 0.583496 27.4942 0.583496 30.0571 1.28247ZM22.4531 12.1484L13.896 17.1047V7.19199L22.4531 12.1484Z" fill="white"/>
</svg>
